<svg xmlns="http://www.w3.org/2000/svg" width="672" height="598" viewBox="0 0 672 598">
<title>collision</title>
<rect width="672" height="598" fill="#faf9f7"/>
<rect x="444" y="0" width="12" height="12" fill="#3f3f46"/>
<rect x="588" y="0" width="12" height="12" fill="#3f3f46"/>
<rect x="444" y="12" width="12" height="12" fill="#3f3f46"/>
<rect x="588" y="12" width="12" height="12" fill="#3f3f46"/>
<rect x="24" y="24" width="12" height="12" fill="#3f3f46"/>
<rect x="36" y="24" width="12" height="12" fill="#3f3f46"/>
<rect x="48" y="24" width="12" height="12" fill="#3f3f46"/>
<rect x="60" y="24" width="12" height="12" fill="#3f3f46"/>
<rect x="72" y="24" width="12" height="12" fill="#3f3f46"/>
<rect x="84" y="24" width="12" height="12" fill="#3f3f46"/>
<rect x="96" y="24" width="12" height="12" fill="#3f3f46"/>
<rect x="108" y="24" width="12" height="12" fill="#3f3f46"/>
<rect x="120" y="24" width="12" height="12" fill="#3f3f46"/>
<rect x="132" y="24" width="12" height="12" fill="#3f3f46"/>
<rect x="144" y="24" width="12" height="12" fill="#3f3f46"/>
<rect x="156" y="24" width="12" height="12" fill="#3f3f46"/>
<rect x="168" y="24" width="12" height="12" fill="#3f3f46"/>
<rect x="180" y="24" width="12" height="12" fill="#3f3f46"/>
<rect x="192" y="24" width="12" height="12" fill="#3f3f46"/>
<rect x="204" y="24" width="12" height="12" fill="#3f3f46"/>
<rect x="216" y="24" width="12" height="12" fill="#3f3f46"/>
<rect x="228" y="24" width="12" height="12" fill="#3f3f46"/>
<rect x="240" y="24" width="12" height="12" fill="#3f3f46"/>
<rect x="252" y="24" width="12" height="12" fill="#3f3f46"/>
<rect x="264" y="24" width="12" height="12" fill="#3f3f46"/>
<rect x="276" y="24" width="12" height="12" fill="#3f3f46"/>
<rect x="288" y="24" width="12" height="12" fill="#3f3f46"/>
<rect x="300" y="24" width="12" height="12" fill="#3f3f46"/>
<rect x="312" y="24" width="12" height="12" fill="#3f3f46"/>
<rect x="324" y="24" width="12" height="12" fill="#3f3f46"/>
<rect x="336" y="24" width="12" height="12" fill="#3f3f46"/>
<rect x="348" y="24" width="12" height="12" fill="#3f3f46"/>
<rect x="360" y="24" width="12" height="12" fill="#3f3f46"/>
<rect x="372" y="24" width="12" height="12" fill="#3f3f46"/>
<rect x="384" y="24" width="12" height="12" fill="#3f3f46"/>
<rect x="396" y="24" width="12" height="12" fill="#3f3f46"/>
<rect x="408" y="24" width="12" height="12" fill="#3f3f46"/>
<rect x="420" y="24" width="12" height="12" fill="#3f3f46"/>
<rect x="432" y="24" width="12" height="12" fill="#3f3f46"/>
<rect x="444" y="24" width="12" height="12" fill="#3f3f46"/>
<rect x="588" y="24" width="12" height="12" fill="#3f3f46"/>
<rect x="600" y="24" width="12" height="12" fill="#3f3f46"/>
<rect x="612" y="24" width="12" height="12" fill="#3f3f46"/>
<rect x="624" y="24" width="12" height="12" fill="#3f3f46"/>
<rect x="24" y="36" width="12" height="12" fill="#3f3f46"/>
<rect x="36" y="36" width="12" height="12" fill="#3f3f46"/>
<rect x="48" y="36" width="12" height="12" fill="#3f3f46"/>
<rect x="60" y="36" width="12" height="12" fill="#3f3f46"/>
<rect x="72" y="36" width="12" height="12" fill="#3f3f46"/>
<rect x="84" y="36" width="12" height="12" fill="#3f3f46"/>
<rect x="96" y="36" width="12" height="12" fill="#3f3f46"/>
<rect x="108" y="36" width="12" height="12" fill="#3f3f46"/>
<rect x="120" y="36" width="12" height="12" fill="#3f3f46"/>
<rect x="132" y="36" width="12" height="12" fill="#3f3f46"/>
<rect x="144" y="36" width="12" height="12" fill="#3f3f46"/>
<rect x="156" y="36" width="12" height="12" fill="#3f3f46"/>
<rect x="168" y="36" width="12" height="12" fill="#3f3f46"/>
<rect x="180" y="36" width="12" height="12" fill="#3f3f46"/>
<rect x="192" y="36" width="12" height="12" fill="#3f3f46"/>
<rect x="204" y="36" width="12" height="12" fill="#3f3f46"/>
<rect x="216" y="36" width="12" height="12" fill="#3f3f46"/>
<rect x="228" y="36" width="12" height="12" fill="#3f3f46"/>
<rect x="240" y="36" width="12" height="12" fill="#3f3f46"/>
<rect x="252" y="36" width="12" height="12" fill="#3f3f46"/>
<rect x="264" y="36" width="12" height="12" fill="#3f3f46"/>
<rect x="276" y="36" width="12" height="12" fill="#3f3f46"/>
<rect x="288" y="36" width="12" height="12" fill="#3f3f46"/>
<rect x="300" y="36" width="12" height="12" fill="#3f3f46"/>
<rect x="312" y="36" width="12" height="12" fill="#3f3f46"/>
<rect x="324" y="36" width="12" height="12" fill="#3f3f46"/>
<rect x="336" y="36" width="12" height="12" fill="#3f3f46"/>
<rect x="348" y="36" width="12" height="12" fill="#3f3f46"/>
<rect x="360" y="36" width="12" height="12" fill="#3f3f46"/>
<rect x="372" y="36" width="12" height="12" fill="#3f3f46"/>
<rect x="384" y="36" width="12" height="12" fill="#3f3f46"/>
<rect x="396" y="36" width="12" height="12" fill="#3f3f46"/>
<rect x="408" y="36" width="12" height="12" fill="#3f3f46"/>
<rect x="420" y="36" width="12" height="12" fill="#3f3f46"/>
<rect x="612" y="36" width="12" height="12" fill="#3f3f46"/>
<rect x="624" y="36" width="12" height="12" fill="#3f3f46"/>
<rect x="24" y="48" width="12" height="12" fill="#3f3f46"/>
<rect x="36" y="48" width="12" height="12" fill="#3f3f46"/>
<rect x="420" y="48" width="12" height="12" fill="#3f3f46"/>
<rect x="612" y="48" width="12" height="12" fill="#3f3f46"/>
<rect x="624" y="48" width="12" height="12" fill="#3f3f46"/>
<rect x="24" y="60" width="12" height="12" fill="#3f3f46"/>
<rect x="36" y="60" width="12" height="12" fill="#3f3f46"/>
<rect x="420" y="60" width="12" height="12" fill="#3f3f46"/>
<rect x="612" y="60" width="12" height="12" fill="#3f3f46"/>
<rect x="624" y="60" width="12" height="12" fill="#3f3f46"/>
<rect x="24" y="72" width="12" height="12" fill="#3f3f46"/>
<rect x="36" y="72" width="12" height="12" fill="#3f3f46"/>
<rect x="420" y="72" width="12" height="12" fill="#3f3f46"/>
<rect x="612" y="72" width="12" height="12" fill="#3f3f46"/>
<rect x="624" y="72" width="12" height="12" fill="#3f3f46"/>
<rect x="24" y="84" width="12" height="12" fill="#3f3f46"/>
<rect x="36" y="84" width="12" height="12" fill="#3f3f46"/>
<rect x="420" y="84" width="12" height="12" fill="#3f3f46"/>
<rect x="612" y="84" width="12" height="12" fill="#3f3f46"/>
<rect x="624" y="84" width="12" height="12" fill="#3f3f46"/>
<rect x="24" y="96" width="12" height="12" fill="#3f3f46"/>
<rect x="36" y="96" width="12" height="12" fill="#3f3f46"/>
<rect x="420" y="96" width="12" height="12" fill="#3f3f46"/>
<rect x="612" y="96" width="12" height="12" fill="#3f3f46"/>
<rect x="624" y="96" width="12" height="12" fill="#3f3f46"/>
<rect x="24" y="108" width="12" height="12" fill="#3f3f46"/>
<rect x="36" y="108" width="12" height="12" fill="#3f3f46"/>
<rect x="420" y="108" width="12" height="12" fill="#3f3f46"/>
<rect x="612" y="108" width="12" height="12" fill="#3f3f46"/>
<rect x="624" y="108" width="12" height="12" fill="#3f3f46"/>
<rect x="24" y="120" width="12" height="12" fill="#3f3f46"/>
<rect x="36" y="120" width="12" height="12" fill="#3f3f46"/>
<rect x="420" y="120" width="12" height="12" fill="#3f3f46"/>
<rect x="432" y="120" width="12" height="12" fill="#3f3f46"/>
<rect x="444" y="120" width="12" height="12" fill="#3f3f46"/>
<rect x="456" y="120" width="12" height="12" fill="#3f3f46"/>
<rect x="468" y="120" width="12" height="12" fill="#3f3f46"/>
<rect x="480" y="120" width="12" height="12" fill="#3f3f46"/>
<rect x="492" y="120" width="12" height="12" fill="#3f3f46"/>
<rect x="504" y="120" width="12" height="12" fill="#3f3f46"/>
<rect x="516" y="120" width="12" height="12" fill="#3f3f46"/>
<rect x="528" y="120" width="12" height="12" fill="#3f3f46"/>
<rect x="540" y="120" width="12" height="12" fill="#3f3f46"/>
<rect x="552" y="120" width="12" height="12" fill="#3f3f46"/>
<rect x="564" y="120" width="12" height="12" fill="#3f3f46"/>
<rect x="612" y="120" width="12" height="12" fill="#3f3f46"/>
<rect x="624" y="120" width="12" height="12" fill="#3f3f46"/>
<rect x="24" y="132" width="12" height="12" fill="#3f3f46"/>
<rect x="36" y="132" width="12" height="12" fill="#3f3f46"/>
<rect x="420" y="132" width="12" height="12" fill="#3f3f46"/>
<rect x="612" y="132" width="12" height="12" fill="#3f3f46"/>
<rect x="624" y="132" width="12" height="12" fill="#3f3f46"/>
<rect x="24" y="144" width="12" height="12" fill="#3f3f46"/>
<rect x="36" y="144" width="12" height="12" fill="#3f3f46"/>
<rect x="420" y="144" width="12" height="12" fill="#3f3f46"/>
<rect x="612" y="144" width="12" height="12" fill="#3f3f46"/>
<rect x="624" y="144" width="12" height="12" fill="#3f3f46"/>
<rect x="24" y="156" width="12" height="12" fill="#3f3f46"/>
<rect x="36" y="156" width="12" height="12" fill="#3f3f46"/>
<rect x="420" y="156" width="12" height="12" fill="#3f3f46"/>
<rect x="612" y="156" width="12" height="12" fill="#3f3f46"/>
<rect x="624" y="156" width="12" height="12" fill="#3f3f46"/>
<rect x="24" y="168" width="12" height="12" fill="#3f3f46"/>
<rect x="36" y="168" width="12" height="12" fill="#3f3f46"/>
<rect x="612" y="168" width="12" height="12" fill="#3f3f46"/>
<rect x="624" y="168" width="12" height="12" fill="#3f3f46"/>
<rect x="24" y="180" width="12" height="12" fill="#3f3f46"/>
<rect x="36" y="180" width="12" height="12" fill="#3f3f46"/>
<rect x="612" y="180" width="12" height="12" fill="#3f3f46"/>
<rect x="624" y="180" width="12" height="12" fill="#3f3f46"/>
<rect x="24" y="192" width="12" height="12" fill="#3f3f46"/>
<rect x="36" y="192" width="12" height="12" fill="#3f3f46"/>
<rect x="612" y="192" width="12" height="12" fill="#3f3f46"/>
<rect x="624" y="192" width="12" height="12" fill="#3f3f46"/>
<rect x="24" y="204" width="12" height="12" fill="#3f3f46"/>
<rect x="36" y="204" width="12" height="12" fill="#3f3f46"/>
<rect x="420" y="204" width="12" height="12" fill="#3f3f46"/>
<rect x="612" y="204" width="12" height="12" fill="#3f3f46"/>
<rect x="624" y="204" width="12" height="12" fill="#3f3f46"/>
<rect x="24" y="216" width="12" height="12" fill="#3f3f46"/>
<rect x="36" y="216" width="12" height="12" fill="#3f3f46"/>
<rect x="420" y="216" width="12" height="12" fill="#3f3f46"/>
<rect x="612" y="216" width="12" height="12" fill="#3f3f46"/>
<rect x="624" y="216" width="12" height="12" fill="#3f3f46"/>
<rect x="24" y="228" width="12" height="12" fill="#3f3f46"/>
<rect x="36" y="228" width="12" height="12" fill="#3f3f46"/>
<rect x="48" y="228" width="12" height="12" fill="#3f3f46"/>
<rect x="60" y="228" width="12" height="12" fill="#3f3f46"/>
<rect x="72" y="228" width="12" height="12" fill="#3f3f46"/>
<rect x="84" y="228" width="12" height="12" fill="#3f3f46"/>
<rect x="96" y="228" width="12" height="12" fill="#3f3f46"/>
<rect x="108" y="228" width="12" height="12" fill="#3f3f46"/>
<rect x="120" y="228" width="12" height="12" fill="#3f3f46"/>
<rect x="132" y="228" width="12" height="12" fill="#3f3f46"/>
<rect x="144" y="228" width="12" height="12" fill="#3f3f46"/>
<rect x="156" y="228" width="12" height="12" fill="#3f3f46"/>
<rect x="168" y="228" width="12" height="12" fill="#3f3f46"/>
<rect x="180" y="228" width="12" height="12" fill="#3f3f46"/>
<rect x="192" y="228" width="12" height="12" fill="#3f3f46"/>
<rect x="204" y="228" width="12" height="12" fill="#3f3f46"/>
<rect x="216" y="228" width="12" height="12" fill="#3f3f46"/>
<rect x="228" y="228" width="12" height="12" fill="#3f3f46"/>
<rect x="240" y="228" width="12" height="12" fill="#3f3f46"/>
<rect x="252" y="228" width="12" height="12" fill="#3f3f46"/>
<rect x="264" y="228" width="12" height="12" fill="#3f3f46"/>
<rect x="276" y="228" width="12" height="12" fill="#3f3f46"/>
<rect x="288" y="228" width="12" height="12" fill="#3f3f46"/>
<rect x="300" y="228" width="12" height="12" fill="#3f3f46"/>
<rect x="348" y="228" width="12" height="12" fill="#3f3f46"/>
<rect x="360" y="228" width="12" height="12" fill="#3f3f46"/>
<rect x="372" y="228" width="12" height="12" fill="#3f3f46"/>
<rect x="384" y="228" width="12" height="12" fill="#3f3f46"/>
<rect x="396" y="228" width="12" height="12" fill="#3f3f46"/>
<rect x="408" y="228" width="12" height="12" fill="#3f3f46"/>
<rect x="420" y="228" width="12" height="12" fill="#3f3f46"/>
<rect x="612" y="228" width="12" height="12" fill="#3f3f46"/>
<rect x="624" y="228" width="12" height="12" fill="#3f3f46"/>
<rect x="24" y="240" width="12" height="12" fill="#3f3f46"/>
<rect x="240" y="240" width="12" height="12" fill="#3f3f46"/>
<rect x="408" y="240" width="12" height="12" fill="#3f3f46"/>
<rect x="420" y="240" width="12" height="12" fill="#3f3f46"/>
<rect x="612" y="240" width="12" height="12" fill="#3f3f46"/>
<rect x="624" y="240" width="12" height="12" fill="#3f3f46"/>
<rect x="24" y="252" width="12" height="12" fill="#3f3f46"/>
<rect x="408" y="252" width="12" height="12" fill="#3f3f46"/>
<rect x="420" y="252" width="12" height="12" fill="#3f3f46"/>
<rect x="612" y="252" width="12" height="12" fill="#3f3f46"/>
<rect x="624" y="252" width="12" height="12" fill="#3f3f46"/>
<rect x="24" y="264" width="12" height="12" fill="#3f3f46"/>
<rect x="408" y="264" width="12" height="12" fill="#3f3f46"/>
<rect x="420" y="264" width="12" height="12" fill="#3f3f46"/>
<rect x="612" y="264" width="12" height="12" fill="#3f3f46"/>
<rect x="624" y="264" width="12" height="12" fill="#3f3f46"/>
<rect x="24" y="276" width="12" height="12" fill="#3f3f46"/>
<rect x="240" y="276" width="12" height="12" fill="#3f3f46"/>
<rect x="408" y="276" width="12" height="12" fill="#3f3f46"/>
<rect x="420" y="276" width="12" height="12" fill="#3f3f46"/>
<rect x="612" y="276" width="12" height="12" fill="#3f3f46"/>
<rect x="624" y="276" width="12" height="12" fill="#3f3f46"/>
<rect x="24" y="288" width="12" height="12" fill="#3f3f46"/>
<rect x="240" y="288" width="12" height="12" fill="#3f3f46"/>
<rect x="408" y="288" width="12" height="12" fill="#3f3f46"/>
<rect x="420" y="288" width="12" height="12" fill="#3f3f46"/>
<rect x="612" y="288" width="12" height="12" fill="#3f3f46"/>
<rect x="624" y="288" width="12" height="12" fill="#3f3f46"/>
<rect x="24" y="300" width="12" height="12" fill="#3f3f46"/>
<rect x="240" y="300" width="12" height="12" fill="#3f3f46"/>
<rect x="408" y="300" width="12" height="12" fill="#3f3f46"/>
<rect x="420" y="300" width="12" height="12" fill="#3f3f46"/>
<rect x="612" y="300" width="12" height="12" fill="#3f3f46"/>
<rect x="624" y="300" width="12" height="12" fill="#3f3f46"/>
<rect x="24" y="312" width="12" height="12" fill="#3f3f46"/>
<rect x="240" y="312" width="12" height="12" fill="#3f3f46"/>
<rect x="408" y="312" width="12" height="12" fill="#3f3f46"/>
<rect x="420" y="312" width="12" height="12" fill="#3f3f46"/>
<rect x="612" y="312" width="12" height="12" fill="#3f3f46"/>
<rect x="624" y="312" width="12" height="12" fill="#3f3f46"/>
<rect x="24" y="324" width="12" height="12" fill="#3f3f46"/>
<rect x="240" y="324" width="12" height="12" fill="#3f3f46"/>
<rect x="408" y="324" width="12" height="12" fill="#3f3f46"/>
<rect x="420" y="324" width="12" height="12" fill="#3f3f46"/>
<rect x="612" y="324" width="12" height="12" fill="#3f3f46"/>
<rect x="624" y="324" width="12" height="12" fill="#3f3f46"/>
<rect x="24" y="336" width="12" height="12" fill="#3f3f46"/>
<rect x="240" y="336" width="12" height="12" fill="#3f3f46"/>
<rect x="408" y="336" width="12" height="12" fill="#3f3f46"/>
<rect x="420" y="336" width="12" height="12" fill="#3f3f46"/>
<rect x="612" y="336" width="12" height="12" fill="#3f3f46"/>
<rect x="624" y="336" width="12" height="12" fill="#3f3f46"/>
<rect x="24" y="348" width="12" height="12" fill="#3f3f46"/>
<rect x="240" y="348" width="12" height="12" fill="#3f3f46"/>
<rect x="408" y="348" width="12" height="12" fill="#3f3f46"/>
<rect x="420" y="348" width="12" height="12" fill="#3f3f46"/>
<rect x="612" y="348" width="12" height="12" fill="#3f3f46"/>
<rect x="624" y="348" width="12" height="12" fill="#3f3f46"/>
<rect x="24" y="360" width="12" height="12" fill="#3f3f46"/>
<rect x="240" y="360" width="12" height="12" fill="#3f3f46"/>
<rect x="408" y="360" width="12" height="12" fill="#3f3f46"/>
<rect x="420" y="360" width="12" height="12" fill="#3f3f46"/>
<rect x="612" y="360" width="12" height="12" fill="#3f3f46"/>
<rect x="624" y="360" width="12" height="12" fill="#3f3f46"/>
<rect x="24" y="372" width="12" height="12" fill="#3f3f46"/>
<rect x="240" y="372" width="12" height="12" fill="#3f3f46"/>
<rect x="408" y="372" width="12" height="12" fill="#3f3f46"/>
<rect x="420" y="372" width="12" height="12" fill="#3f3f46"/>
<rect x="612" y="372" width="12" height="12" fill="#3f3f46"/>
<rect x="624" y="372" width="12" height="12" fill="#3f3f46"/>
<rect x="24" y="384" width="12" height="12" fill="#3f3f46"/>
<rect x="36" y="384" width="12" height="12" fill="#3f3f46"/>
<rect x="72" y="384" width="12" height="12" fill="#3f3f46"/>
<rect x="84" y="384" width="12" height="12" fill="#3f3f46"/>
<rect x="96" y="384" width="12" height="12" fill="#3f3f46"/>
<rect x="108" y="384" width="12" height="12" fill="#3f3f46"/>
<rect x="120" y="384" width="12" height="12" fill="#3f3f46"/>
<rect x="132" y="384" width="12" height="12" fill="#3f3f46"/>
<rect x="144" y="384" width="12" height="12" fill="#3f3f46"/>
<rect x="156" y="384" width="12" height="12" fill="#3f3f46"/>
<rect x="168" y="384" width="12" height="12" fill="#3f3f46"/>
<rect x="180" y="384" width="12" height="12" fill="#3f3f46"/>
<rect x="192" y="384" width="12" height="12" fill="#3f3f46"/>
<rect x="204" y="384" width="12" height="12" fill="#3f3f46"/>
<rect x="216" y="384" width="12" height="12" fill="#3f3f46"/>
<rect x="228" y="384" width="12" height="12" fill="#3f3f46"/>
<rect x="240" y="384" width="12" height="12" fill="#3f3f46"/>
<rect x="288" y="384" width="12" height="12" fill="#3f3f46"/>
<rect x="300" y="384" width="12" height="12" fill="#3f3f46"/>
<rect x="312" y="384" width="12" height="12" fill="#3f3f46"/>
<rect x="324" y="384" width="12" height="12" fill="#3f3f46"/>
<rect x="336" y="384" width="12" height="12" fill="#3f3f46"/>
<rect x="348" y="384" width="12" height="12" fill="#3f3f46"/>
<rect x="384" y="384" width="12" height="12" fill="#3f3f46"/>
<rect x="396" y="384" width="12" height="12" fill="#3f3f46"/>
<rect x="408" y="384" width="12" height="12" fill="#3f3f46"/>
<rect x="420" y="384" width="12" height="12" fill="#3f3f46"/>
<rect x="432" y="384" width="12" height="12" fill="#3f3f46"/>
<rect x="444" y="384" width="12" height="12" fill="#3f3f46"/>
<rect x="456" y="384" width="12" height="12" fill="#3f3f46"/>
<rect x="468" y="384" width="12" height="12" fill="#3f3f46"/>
<rect x="480" y="384" width="12" height="12" fill="#3f3f46"/>
<rect x="492" y="384" width="12" height="12" fill="#3f3f46"/>
<rect x="504" y="384" width="12" height="12" fill="#3f3f46"/>
<rect x="516" y="384" width="12" height="12" fill="#3f3f46"/>
<rect x="528" y="384" width="12" height="12" fill="#3f3f46"/>
<rect x="540" y="384" width="12" height="12" fill="#3f3f46"/>
<rect x="552" y="384" width="12" height="12" fill="#3f3f46"/>
<rect x="564" y="384" width="12" height="12" fill="#3f3f46"/>
<rect x="576" y="384" width="12" height="12" fill="#3f3f46"/>
<rect x="588" y="384" width="12" height="12" fill="#3f3f46"/>
<rect x="600" y="384" width="12" height="12" fill="#3f3f46"/>
<rect x="612" y="384" width="12" height="12" fill="#3f3f46"/>
<rect x="624" y="384" width="12" height="12" fill="#3f3f46"/>
<rect x="24" y="396" width="12" height="12" fill="#3f3f46"/>
<rect x="36" y="396" width="12" height="12" fill="#3f3f46"/>
<rect x="288" y="396" width="12" height="12" fill="#3f3f46"/>
<rect x="588" y="396" width="12" height="12" fill="#3f3f46"/>
<rect x="600" y="396" width="12" height="12" fill="#3f3f46"/>
<rect x="612" y="396" width="12" height="12" fill="#3f3f46"/>
<rect x="624" y="396" width="12" height="12" fill="#3f3f46"/>
<rect x="24" y="408" width="12" height="12" fill="#3f3f46"/>
<rect x="36" y="408" width="12" height="12" fill="#3f3f46"/>
<rect x="288" y="408" width="12" height="12" fill="#3f3f46"/>
<rect x="588" y="408" width="12" height="12" fill="#3f3f46"/>
<rect x="600" y="408" width="12" height="12" fill="#3f3f46"/>
<rect x="612" y="408" width="12" height="12" fill="#3f3f46"/>
<rect x="624" y="408" width="12" height="12" fill="#3f3f46"/>
<rect x="24" y="420" width="12" height="12" fill="#3f3f46"/>
<rect x="36" y="420" width="12" height="12" fill="#3f3f46"/>
<rect x="288" y="420" width="12" height="12" fill="#3f3f46"/>
<rect x="588" y="420" width="12" height="12" fill="#3f3f46"/>
<rect x="600" y="420" width="12" height="12" fill="#3f3f46"/>
<rect x="612" y="420" width="12" height="12" fill="#3f3f46"/>
<rect x="624" y="420" width="12" height="12" fill="#3f3f46"/>
<rect x="24" y="432" width="12" height="12" fill="#3f3f46"/>
<rect x="36" y="432" width="12" height="12" fill="#3f3f46"/>
<rect x="588" y="432" width="12" height="12" fill="#3f3f46"/>
<rect x="600" y="432" width="12" height="12" fill="#3f3f46"/>
<rect x="612" y="432" width="12" height="12" fill="#3f3f46"/>
<rect x="624" y="432" width="12" height="12" fill="#3f3f46"/>
<rect x="24" y="444" width="12" height="12" fill="#3f3f46"/>
<rect x="36" y="444" width="12" height="12" fill="#3f3f46"/>
<rect x="588" y="444" width="12" height="12" fill="#3f3f46"/>
<rect x="600" y="444" width="12" height="12" fill="#3f3f46"/>
<rect x="612" y="444" width="12" height="12" fill="#3f3f46"/>
<rect x="624" y="444" width="12" height="12" fill="#3f3f46"/>
<rect x="24" y="456" width="12" height="12" fill="#3f3f46"/>
<rect x="36" y="456" width="12" height="12" fill="#3f3f46"/>
<rect x="288" y="456" width="12" height="12" fill="#3f3f46"/>
<rect x="588" y="456" width="12" height="12" fill="#3f3f46"/>
<rect x="600" y="456" width="12" height="12" fill="#3f3f46"/>
<rect x="612" y="456" width="12" height="12" fill="#3f3f46"/>
<rect x="624" y="456" width="12" height="12" fill="#3f3f46"/>
<rect x="24" y="468" width="12" height="12" fill="#3f3f46"/>
<rect x="36" y="468" width="12" height="12" fill="#3f3f46"/>
<rect x="288" y="468" width="12" height="12" fill="#3f3f46"/>
<rect x="588" y="468" width="12" height="12" fill="#3f3f46"/>
<rect x="600" y="468" width="12" height="12" fill="#3f3f46"/>
<rect x="612" y="468" width="12" height="12" fill="#3f3f46"/>
<rect x="624" y="468" width="12" height="12" fill="#3f3f46"/>
<rect x="24" y="480" width="12" height="12" fill="#3f3f46"/>
<rect x="36" y="480" width="12" height="12" fill="#3f3f46"/>
<rect x="288" y="480" width="12" height="12" fill="#3f3f46"/>
<rect x="588" y="480" width="12" height="12" fill="#3f3f46"/>
<rect x="600" y="480" width="12" height="12" fill="#3f3f46"/>
<rect x="612" y="480" width="12" height="12" fill="#3f3f46"/>
<rect x="624" y="480" width="12" height="12" fill="#3f3f46"/>
<rect x="24" y="492" width="12" height="12" fill="#3f3f46"/>
<rect x="36" y="492" width="12" height="12" fill="#3f3f46"/>
<rect x="288" y="492" width="12" height="12" fill="#3f3f46"/>
<rect x="588" y="492" width="12" height="12" fill="#3f3f46"/>
<rect x="600" y="492" width="12" height="12" fill="#3f3f46"/>
<rect x="612" y="492" width="12" height="12" fill="#3f3f46"/>
<rect x="624" y="492" width="12" height="12" fill="#3f3f46"/>
<rect x="24" y="504" width="12" height="12" fill="#3f3f46"/>
<rect x="36" y="504" width="12" height="12" fill="#3f3f46"/>
<rect x="288" y="504" width="12" height="12" fill="#3f3f46"/>
<rect x="588" y="504" width="12" height="12" fill="#3f3f46"/>
<rect x="600" y="504" width="12" height="12" fill="#3f3f46"/>
<rect x="612" y="504" width="12" height="12" fill="#3f3f46"/>
<rect x="624" y="504" width="12" height="12" fill="#3f3f46"/>
<rect x="24" y="516" width="12" height="12" fill="#3f3f46"/>
<rect x="36" y="516" width="12" height="12" fill="#3f3f46"/>
<rect x="288" y="516" width="12" height="12" fill="#3f3f46"/>
<rect x="588" y="516" width="12" height="12" fill="#3f3f46"/>
<rect x="600" y="516" width="12" height="12" fill="#3f3f46"/>
<rect x="612" y="516" width="12" height="12" fill="#3f3f46"/>
<rect x="624" y="516" width="12" height="12" fill="#3f3f46"/>
<rect x="24" y="528" width="12" height="12" fill="#3f3f46"/>
<rect x="36" y="528" width="12" height="12" fill="#3f3f46"/>
<rect x="288" y="528" width="12" height="12" fill="#3f3f46"/>
<rect x="588" y="528" width="12" height="12" fill="#3f3f46"/>
<rect x="600" y="528" width="12" height="12" fill="#3f3f46"/>
<rect x="612" y="528" width="12" height="12" fill="#3f3f46"/>
<rect x="624" y="528" width="12" height="12" fill="#3f3f46"/>
<rect x="24" y="540" width="12" height="12" fill="#3f3f46"/>
<rect x="36" y="540" width="12" height="12" fill="#3f3f46"/>
<rect x="288" y="540" width="12" height="12" fill="#3f3f46"/>
<rect x="588" y="540" width="12" height="12" fill="#3f3f46"/>
<rect x="600" y="540" width="12" height="12" fill="#3f3f46"/>
<rect x="612" y="540" width="12" height="12" fill="#3f3f46"/>
<rect x="624" y="540" width="12" height="12" fill="#3f3f46"/>
<rect x="24" y="552" width="12" height="12" fill="#3f3f46"/>
<rect x="36" y="552" width="12" height="12" fill="#3f3f46"/>
<rect x="48" y="552" width="12" height="12" fill="#3f3f46"/>
<rect x="60" y="552" width="12" height="12" fill="#3f3f46"/>
<rect x="72" y="552" width="12" height="12" fill="#3f3f46"/>
<rect x="84" y="552" width="12" height="12" fill="#3f3f46"/>
<rect x="96" y="552" width="12" height="12" fill="#3f3f46"/>
<rect x="108" y="552" width="12" height="12" fill="#3f3f46"/>
<rect x="120" y="552" width="12" height="12" fill="#3f3f46"/>
<rect x="132" y="552" width="12" height="12" fill="#3f3f46"/>
<rect x="144" y="552" width="12" height="12" fill="#3f3f46"/>
<rect x="156" y="552" width="12" height="12" fill="#3f3f46"/>
<rect x="168" y="552" width="12" height="12" fill="#3f3f46"/>
<rect x="180" y="552" width="12" height="12" fill="#3f3f46"/>
<rect x="192" y="552" width="12" height="12" fill="#3f3f46"/>
<rect x="204" y="552" width="12" height="12" fill="#3f3f46"/>
<rect x="216" y="552" width="12" height="12" fill="#3f3f46"/>
<rect x="228" y="552" width="12" height="12" fill="#3f3f46"/>
<rect x="240" y="552" width="12" height="12" fill="#3f3f46"/>
<rect x="252" y="552" width="12" height="12" fill="#3f3f46"/>
<rect x="264" y="552" width="12" height="12" fill="#3f3f46"/>
<rect x="276" y="552" width="12" height="12" fill="#3f3f46"/>
<rect x="288" y="552" width="12" height="12" fill="#3f3f46"/>
<rect x="300" y="552" width="12" height="12" fill="#3f3f46"/>
<rect x="312" y="552" width="12" height="12" fill="#3f3f46"/>
<rect x="324" y="552" width="12" height="12" fill="#3f3f46"/>
<rect x="336" y="552" width="12" height="12" fill="#3f3f46"/>
<rect x="348" y="552" width="12" height="12" fill="#3f3f46"/>
<rect x="360" y="552" width="12" height="12" fill="#3f3f46"/>
<rect x="372" y="552" width="12" height="12" fill="#3f3f46"/>
<rect x="384" y="552" width="12" height="12" fill="#3f3f46"/>
<rect x="396" y="552" width="12" height="12" fill="#3f3f46"/>
<rect x="408" y="552" width="12" height="12" fill="#3f3f46"/>
<rect x="420" y="552" width="12" height="12" fill="#3f3f46"/>
<rect x="432" y="552" width="12" height="12" fill="#3f3f46"/>
<rect x="444" y="552" width="12" height="12" fill="#3f3f46"/>
<rect x="456" y="552" width="12" height="12" fill="#3f3f46"/>
<rect x="468" y="552" width="12" height="12" fill="#3f3f46"/>
<rect x="480" y="552" width="12" height="12" fill="#3f3f46"/>
<rect x="492" y="552" width="12" height="12" fill="#3f3f46"/>
<rect x="504" y="552" width="12" height="12" fill="#3f3f46"/>
<rect x="516" y="552" width="12" height="12" fill="#3f3f46"/>
<rect x="528" y="552" width="12" height="12" fill="#3f3f46"/>
<rect x="540" y="552" width="12" height="12" fill="#3f3f46"/>
<rect x="552" y="552" width="12" height="12" fill="#3f3f46"/>
<rect x="564" y="552" width="12" height="12" fill="#3f3f46"/>
<rect x="576" y="552" width="12" height="12" fill="#3f3f46"/>
<rect x="588" y="552" width="12" height="12" fill="#3f3f46"/>
<rect x="600" y="552" width="12" height="12" fill="#3f3f46"/>
<rect x="612" y="552" width="12" height="12" fill="#3f3f46"/>
<rect x="624" y="552" width="12" height="12" fill="#3f3f46"/>
<text x="4" y="591" font-family="monospace" font-size="10" fill="#27272a">&#160;#&#160;</text>
</svg>