<svg xmlns="http://www.w3.org/2000/svg" width="672" height="598" viewBox="0 0 672 598">
<title>composed collision (village + overlays)</title>
<rect width="672" height="598" fill="#faf9f7"/>
<rect x="24" y="24" width="12" height="12" fill="#3f3f46"/>
<rect x="36" y="24" width="12" height="12" fill="#3f3f46"/>
<rect x="48" y="24" width="12" height="12" fill="#3f3f46"/>
<rect x="60" y="24" width="12" height="12" fill="#3f3f46"/>
<rect x="72" y="24" width="12" height="12" fill="#3f3f46"/>
<rect x="84" y="24" width="12" height="12" fill="#3f3f46"/>
<rect x="96" y="24" width="12" height="12" fill="#3f3f46"/>
<rect x="108" y="24" width="12" height="12" fill="#3f3f46"/>
<rect x="120" y="24" width="12" height="12" fill="#3f3f46"/>
<rect x="132" y="24" width="12" height="12" fill="#3f3f46"/>
<rect x="144" y="24" width="12" height="12" fill="#3f3f46"/>
<rect x="156" y="24" width="12" height="12" fill="#3f3f46"/>
<rect x="168" y="24" width="12" height="12" fill="#3f3f46"/>
<rect x="180" y="24" width="12" height="12" fill="#3f3f46"/>
<rect x="192" y="24" width="12" height="12" fill="#3f3f46"/>
<rect x="204" y="24" width="12" height="12" fill="#3f3f46"/>
<rect x="216" y="24" width="12" height="12" fill="#3f3f46"/>
<rect x="228" y="24" width="12" height="12" fill="#3f3f46"/>
<rect x="240" y="24" width="12" height="12" fill="#3f3f46"/>
<rect x="252" y="24" width="12" height="12" fill="#3f3f46"/>
<rect x="264" y="24" width="12" height="12" fill="#3f3f46"/>
<rect x="276" y="24" width="12" height="12" fill="#3f3f46"/>
<rect x="288" y="24" width="12" height="12" fill="#3f3f46"/>
<rect x="300" y="24" width="12" height="12" fill="#3f3f46"/>
<rect x="312" y="24" width="12" height="12" fill="#3f3f46"/>
<rect x="324" y="24" width="12" height="12" fill="#3f3f46"/>
<rect x="336" y="24" width="12" height="12" fill="#3f3f46"/>
<rect x="348" y="24" width="12" height="12" fill="#3f3f46"/>
<rect x="360" y="24" width="12" height="12" fill="#3f3f46"/>
<rect x="372" y="24" width="12" height="12" fill="#3f3f46"/>
<rect x="384" y="24" width="12" height="12" fill="#3f3f46"/>
<rect x="396" y="24" width="12" height="12" fill="#3f3f46"/>
<rect x="408" y="24" width="12" height="12" fill="#3f3f46"/>
<rect x="420" y="24" width="12" height="12" fill="#3f3f46"/>
<rect x="432" y="24" width="12" height="12" fill="#3f3f46"/>
<rect x="444" y="24" width="12" height="12" fill="#3f3f46"/>
<rect x="456" y="24" width="12" height="12" fill="#3f3f46"/>
<rect x="468" y="24" width="12" height="12" fill="#3f3f46"/>
<rect x="480" y="24" width="12" height="12" fill="#3f3f46"/>
<rect x="492" y="24" width="12" height="12" fill="#3f3f46"/>
<rect x="504" y="24" width="12" height="12" fill="#3f3f46"/>
<rect x="588" y="24" width="12" height="12" fill="#3f3f46"/>
<rect x="600" y="24" width="12" height="12" fill="#3f3f46"/>
<rect x="612" y="24" width="12" height="12" fill="#3f3f46"/>
<rect x="624" y="24" width="12" height="12" fill="#3f3f46"/>
<rect x="636" y="24" width="12" height="12" fill="#3f3f46"/>
<rect x="648" y="24" width="12" height="12" fill="#3f3f46"/>
<rect x="660" y="24" width="12" height="12" fill="#3f3f46"/>
<rect x="24" y="36" width="12" height="12" fill="#3f3f46"/>
<rect x="516" y="36" width="12" height="12" fill="#3f3f46"/>
<rect x="588" y="36" width="12" height="12" fill="#3f3f46"/>
<rect x="624" y="36" width="12" height="12" fill="#3f3f46"/>
<rect x="24" y="48" width="12" height="12" fill="#3f3f46"/>
<rect x="516" y="48" width="12" height="12" fill="#3f3f46"/>
<rect x="588" y="48" width="12" height="12" fill="#3f3f46"/>
<rect x="624" y="48" width="12" height="12" fill="#3f3f46"/>
<rect x="24" y="60" width="12" height="12" fill="#3f3f46"/>
<rect x="24" y="72" width="12" height="12" fill="#3f3f46"/>
<rect x="24" y="84" width="12" height="12" fill="#3f3f46"/>
<rect x="24" y="96" width="12" height="12" fill="#3f3f46"/>
<rect x="24" y="108" width="12" height="12" fill="#3f3f46"/>
<rect x="492" y="108" width="12" height="12" fill="#3f3f46"/>
<rect x="624" y="108" width="12" height="12" fill="#3f3f46"/>
<rect x="24" y="120" width="12" height="12" fill="#3f3f46"/>
<rect x="492" y="120" width="12" height="12" fill="#3f3f46"/>
<rect x="624" y="120" width="12" height="12" fill="#3f3f46"/>
<rect x="24" y="132" width="12" height="12" fill="#3f3f46"/>
<rect x="492" y="132" width="12" height="12" fill="#3f3f46"/>
<rect x="624" y="132" width="12" height="12" fill="#3f3f46"/>
<rect x="24" y="144" width="12" height="12" fill="#3f3f46"/>
<rect x="492" y="144" width="12" height="12" fill="#3f3f46"/>
<rect x="624" y="144" width="12" height="12" fill="#3f3f46"/>
<rect x="24" y="156" width="12" height="12" fill="#3f3f46"/>
<rect x="492" y="156" width="12" height="12" fill="#3f3f46"/>
<rect x="624" y="156" width="12" height="12" fill="#3f3f46"/>
<rect x="24" y="168" width="12" height="12" fill="#3f3f46"/>
<rect x="492" y="168" width="12" height="12" fill="#3f3f46"/>
<rect x="624" y="168" width="12" height="12" fill="#3f3f46"/>
<rect x="24" y="180" width="12" height="12" fill="#3f3f46"/>
<rect x="492" y="180" width="12" height="12" fill="#3f3f46"/>
<rect x="624" y="180" width="12" height="12" fill="#3f3f46"/>
<rect x="24" y="192" width="12" height="12" fill="#3f3f46"/>
<rect x="288" y="192" width="12" height="12" fill="#3f3f46"/>
<rect x="336" y="192" width="12" height="12" fill="#3f3f46"/>
<rect x="492" y="192" width="12" height="12" fill="#3f3f46"/>
<rect x="624" y="192" width="12" height="12" fill="#3f3f46"/>
<rect x="24" y="204" width="12" height="12" fill="#3f3f46"/>
<rect x="288" y="204" width="12" height="12" fill="#3f3f46"/>
<rect x="336" y="204" width="12" height="12" fill="#3f3f46"/>
<rect x="492" y="204" width="12" height="12" fill="#3f3f46"/>
<rect x="624" y="204" width="12" height="12" fill="#3f3f46"/>
<rect x="24" y="216" width="12" height="12" fill="#3f3f46"/>
<rect x="288" y="216" width="12" height="12" fill="#3f3f46"/>
<rect x="336" y="216" width="12" height="12" fill="#3f3f46"/>
<rect x="492" y="216" width="12" height="12" fill="#3f3f46"/>
<rect x="624" y="216" width="12" height="12" fill="#3f3f46"/>
<rect x="24" y="228" width="12" height="12" fill="#3f3f46"/>
<rect x="288" y="228" width="12" height="12" fill="#3f3f46"/>
<rect x="336" y="228" width="12" height="12" fill="#3f3f46"/>
<rect x="492" y="228" width="12" height="12" fill="#3f3f46"/>
<rect x="624" y="228" width="12" height="12" fill="#3f3f46"/>
<rect x="24" y="240" width="12" height="12" fill="#3f3f46"/>
<rect x="288" y="240" width="12" height="12" fill="#3f3f46"/>
<rect x="336" y="240" width="12" height="12" fill="#3f3f46"/>
<rect x="492" y="240" width="12" height="12" fill="#3f3f46"/>
<rect x="624" y="240" width="12" height="12" fill="#3f3f46"/>
<rect x="24" y="252" width="12" height="12" fill="#3f3f46"/>
<rect x="240" y="252" width="12" height="12" fill="#3f3f46"/>
<rect x="252" y="252" width="12" height="12" fill="#3f3f46"/>
<rect x="264" y="252" width="12" height="12" fill="#3f3f46"/>
<rect x="276" y="252" width="12" height="12" fill="#3f3f46"/>
<rect x="288" y="252" width="12" height="12" fill="#3f3f46"/>
<rect x="336" y="252" width="12" height="12" fill="#3f3f46"/>
<rect x="348" y="252" width="12" height="12" fill="#3f3f46"/>
<rect x="360" y="252" width="12" height="12" fill="#3f3f46"/>
<rect x="372" y="252" width="12" height="12" fill="#3f3f46"/>
<rect x="384" y="252" width="12" height="12" fill="#3f3f46"/>
<rect x="492" y="252" width="12" height="12" fill="#3f3f46"/>
<rect x="624" y="252" width="12" height="12" fill="#3f3f46"/>
<rect x="24" y="264" width="12" height="12" fill="#3f3f46"/>
<rect x="228" y="264" width="12" height="12" fill="#3f3f46"/>
<rect x="624" y="264" width="12" height="12" fill="#3f3f46"/>
<rect x="24" y="276" width="12" height="12" fill="#3f3f46"/>
<rect x="228" y="276" width="12" height="12" fill="#3f3f46"/>
<rect x="624" y="276" width="12" height="12" fill="#3f3f46"/>
<rect x="24" y="288" width="12" height="12" fill="#3f3f46"/>
<rect x="228" y="288" width="12" height="12" fill="#3f3f46"/>
<rect x="624" y="288" width="12" height="12" fill="#3f3f46"/>
<rect x="24" y="300" width="12" height="12" fill="#3f3f46"/>
<rect x="624" y="300" width="12" height="12" fill="#3f3f46"/>
<rect x="24" y="312" width="12" height="12" fill="#3f3f46"/>
<rect x="624" y="312" width="12" height="12" fill="#3f3f46"/>
<rect x="24" y="324" width="12" height="12" fill="#3f3f46"/>
<rect x="228" y="324" width="12" height="12" fill="#3f3f46"/>
<rect x="624" y="324" width="12" height="12" fill="#3f3f46"/>
<rect x="24" y="336" width="12" height="12" fill="#3f3f46"/>
<rect x="228" y="336" width="12" height="12" fill="#3f3f46"/>
<rect x="624" y="336" width="12" height="12" fill="#3f3f46"/>
<rect x="24" y="348" width="12" height="12" fill="#3f3f46"/>
<rect x="228" y="348" width="12" height="12" fill="#3f3f46"/>
<rect x="624" y="348" width="12" height="12" fill="#3f3f46"/>
<rect x="24" y="360" width="12" height="12" fill="#3f3f46"/>
<rect x="156" y="360" width="12" height="12" fill="#3f3f46"/>
<rect x="204" y="360" width="12" height="12" fill="#3f3f46"/>
<rect x="252" y="360" width="12" height="12" fill="#3f3f46"/>
<rect x="264" y="360" width="12" height="12" fill="#3f3f46"/>
<rect x="276" y="360" width="12" height="12" fill="#3f3f46"/>
<rect x="288" y="360" width="12" height="12" fill="#3f3f46"/>
<rect x="336" y="360" width="12" height="12" fill="#3f3f46"/>
<rect x="348" y="360" width="12" height="12" fill="#3f3f46"/>
<rect x="360" y="360" width="12" height="12" fill="#3f3f46"/>
<rect x="372" y="360" width="12" height="12" fill="#3f3f46"/>
<rect x="384" y="360" width="12" height="12" fill="#3f3f46"/>
<rect x="624" y="360" width="12" height="12" fill="#3f3f46"/>
<rect x="24" y="372" width="12" height="12" fill="#3f3f46"/>
<rect x="156" y="372" width="12" height="12" fill="#3f3f46"/>
<rect x="204" y="372" width="12" height="12" fill="#3f3f46"/>
<rect x="288" y="372" width="12" height="12" fill="#3f3f46"/>
<rect x="336" y="372" width="12" height="12" fill="#3f3f46"/>
<rect x="624" y="372" width="12" height="12" fill="#3f3f46"/>
<rect x="24" y="384" width="12" height="12" fill="#3f3f46"/>
<rect x="156" y="384" width="12" height="12" fill="#3f3f46"/>
<rect x="204" y="384" width="12" height="12" fill="#3f3f46"/>
<rect x="288" y="384" width="12" height="12" fill="#3f3f46"/>
<rect x="336" y="384" width="12" height="12" fill="#3f3f46"/>
<rect x="624" y="384" width="12" height="12" fill="#3f3f46"/>
<rect x="24" y="396" width="12" height="12" fill="#3f3f46"/>
<rect x="156" y="396" width="12" height="12" fill="#3f3f46"/>
<rect x="204" y="396" width="12" height="12" fill="#3f3f46"/>
<rect x="288" y="396" width="12" height="12" fill="#3f3f46"/>
<rect x="336" y="396" width="12" height="12" fill="#3f3f46"/>
<rect x="624" y="396" width="12" height="12" fill="#3f3f46"/>
<rect x="24" y="408" width="12" height="12" fill="#3f3f46"/>
<rect x="156" y="408" width="12" height="12" fill="#3f3f46"/>
<rect x="252" y="408" width="12" height="12" fill="#3f3f46"/>
<rect x="624" y="408" width="12" height="12" fill="#3f3f46"/>
<rect x="24" y="420" width="12" height="12" fill="#3f3f46"/>
<rect x="156" y="420" width="12" height="12" fill="#3f3f46"/>
<rect x="204" y="420" width="12" height="12" fill="#3f3f46"/>
<rect x="252" y="420" width="12" height="12" fill="#3f3f46"/>
<rect x="624" y="420" width="12" height="12" fill="#3f3f46"/>
<rect x="24" y="432" width="12" height="12" fill="#3f3f46"/>
<rect x="624" y="432" width="12" height="12" fill="#3f3f46"/>
<rect x="24" y="444" width="12" height="12" fill="#3f3f46"/>
<rect x="624" y="444" width="12" height="12" fill="#3f3f46"/>
<rect x="24" y="456" width="12" height="12" fill="#3f3f46"/>
<rect x="624" y="456" width="12" height="12" fill="#3f3f46"/>
<rect x="24" y="468" width="12" height="12" fill="#3f3f46"/>
<rect x="252" y="468" width="12" height="12" fill="#3f3f46"/>
<rect x="624" y="468" width="12" height="12" fill="#3f3f46"/>
<rect x="24" y="480" width="12" height="12" fill="#3f3f46"/>
<rect x="252" y="480" width="12" height="12" fill="#3f3f46"/>
<rect x="624" y="480" width="12" height="12" fill="#3f3f46"/>
<rect x="24" y="492" width="12" height="12" fill="#3f3f46"/>
<rect x="252" y="492" width="12" height="12" fill="#3f3f46"/>
<rect x="624" y="492" width="12" height="12" fill="#3f3f46"/>
<rect x="24" y="504" width="12" height="12" fill="#3f3f46"/>
<rect x="252" y="504" width="12" height="12" fill="#3f3f46"/>
<rect x="624" y="504" width="12" height="12" fill="#3f3f46"/>
<rect x="24" y="516" width="12" height="12" fill="#3f3f46"/>
<rect x="624" y="516" width="12" height="12" fill="#3f3f46"/>
<rect x="24" y="528" width="12" height="12" fill="#3f3f46"/>
<rect x="624" y="528" width="12" height="12" fill="#3f3f46"/>
<rect x="24" y="540" width="12" height="12" fill="#3f3f46"/>
<rect x="36" y="540" width="12" height="12" fill="#3f3f46"/>
<rect x="48" y="540" width="12" height="12" fill="#3f3f46"/>
<rect x="60" y="540" width="12" height="12" fill="#3f3f46"/>
<rect x="72" y="540" width="12" height="12" fill="#3f3f46"/>
<rect x="84" y="540" width="12" height="12" fill="#3f3f46"/>
<rect x="96" y="540" width="12" height="12" fill="#3f3f46"/>
<rect x="108" y="540" width="12" height="12" fill="#3f3f46"/>
<rect x="120" y="540" width="12" height="12" fill="#3f3f46"/>
<rect x="132" y="540" width="12" height="12" fill="#3f3f46"/>
<rect x="144" y="540" width="12" height="12" fill="#3f3f46"/>
<rect x="156" y="540" width="12" height="12" fill="#3f3f46"/>
<rect x="168" y="540" width="12" height="12" fill="#3f3f46"/>
<rect x="180" y="540" width="12" height="12" fill="#3f3f46"/>
<rect x="192" y="540" width="12" height="12" fill="#3f3f46"/>
<rect x="204" y="540" width="12" height="12" fill="#3f3f46"/>
<rect x="216" y="540" width="12" height="12" fill="#3f3f46"/>
<rect x="228" y="540" width="12" height="12" fill="#3f3f46"/>
<rect x="240" y="540" width="12" height="12" fill="#3f3f46"/>
<rect x="252" y="540" width="12" height="12" fill="#3f3f46"/>
<rect x="264" y="540" width="12" height="12" fill="#3f3f46"/>
<rect x="276" y="540" width="12" height="12" fill="#3f3f46"/>
<rect x="288" y="540" width="12" height="12" fill="#3f3f46"/>
<rect x="300" y="540" width="12" height="12" fill="#3f3f46"/>
<rect x="312" y="540" width="12" height="12" fill="#3f3f46"/>
<rect x="324" y="540" width="12" height="12" fill="#3f3f46"/>
<rect x="336" y="540" width="12" height="12" fill="#3f3f46"/>
<rect x="348" y="540" width="12" height="12" fill="#3f3f46"/>
<rect x="360" y="540" width="12" height="12" fill="#3f3f46"/>
<rect x="372" y="540" width="12" height="12" fill="#3f3f46"/>
<rect x="384" y="540" width="12" height="12" fill="#3f3f46"/>
<rect x="396" y="540" width="12" height="12" fill="#3f3f46"/>
<rect x="408" y="540" width="12" height="12" fill="#3f3f46"/>
<rect x="420" y="540" width="12" height="12" fill="#3f3f46"/>
<rect x="432" y="540" width="12" height="12" fill="#3f3f46"/>
<rect x="444" y="540" width="12" height="12" fill="#3f3f46"/>
<rect x="456" y="540" width="12" height="12" fill="#3f3f46"/>
<rect x="468" y="540" width="12" height="12" fill="#3f3f46"/>
<rect x="480" y="540" width="12" height="12" fill="#3f3f46"/>
<rect x="492" y="540" width="12" height="12" fill="#3f3f46"/>
<rect x="504" y="540" width="12" height="12" fill="#3f3f46"/>
<rect x="516" y="540" width="12" height="12" fill="#3f3f46"/>
<rect x="528" y="540" width="12" height="12" fill="#3f3f46"/>
<rect x="540" y="540" width="12" height="12" fill="#3f3f46"/>
<rect x="552" y="540" width="12" height="12" fill="#3f3f46"/>
<rect x="564" y="540" width="12" height="12" fill="#3f3f46"/>
<rect x="576" y="540" width="12" height="12" fill="#3f3f46"/>
<rect x="588" y="540" width="12" height="12" fill="#3f3f46"/>
<rect x="600" y="540" width="12" height="12" fill="#3f3f46"/>
<rect x="612" y="540" width="12" height="12" fill="#3f3f46"/>
<rect x="624" y="540" width="12" height="12" fill="#3f3f46"/>
<rect x="540" y="48" width="12" height="12" fill="#b91c1c" opacity="0.85"/>
<rect x="552" y="48" width="12" height="12" fill="#b91c1c" opacity="0.85"/>
<rect x="564" y="48" width="12" height="12" fill="#b91c1c" opacity="0.85"/>
<rect x="576" y="48" width="12" height="12" fill="#b91c1c" opacity="0.85"/>
<rect x="588" y="48" width="12" height="12" fill="#b91c1c" opacity="0.85"/>
<rect x="540" y="60" width="12" height="12" fill="#b91c1c" opacity="0.85"/>
<rect x="552" y="60" width="12" height="12" fill="#b91c1c" opacity="0.85"/>
<rect x="564" y="60" width="12" height="12" fill="#b91c1c" opacity="0.85"/>
<rect x="576" y="60" width="12" height="12" fill="#b91c1c" opacity="0.85"/>
<rect x="588" y="60" width="12" height="12" fill="#b91c1c" opacity="0.85"/>
<text x="4" y="591" font-family="monospace" font-size="10" fill="#27272a">&#160;village&#160;</text>
<text x="66" y="591" font-family="monospace" font-size="10" fill="#27272a">&#160;overlay&#160;</text>
</svg>