<svg xmlns="http://www.w3.org/2000/svg" viewBox="0 0 3360 4947" width="840" height="1236.75">
<rect width="3360" height="4947" fill="#0d1117"/>
<rect x="-250" y="2450" width="900" height="900" fill="#1f2937" stroke="#374151" stroke-width="2"/>
<text x="-244" y="2466" fill="#9ca3af" font-size="22" font-family="monospace">crossroads-hub-room</text>
<rect x="420" y="4240" width="760" height="360" fill="#1f2937" stroke="#374151" stroke-width="2"/>
<text x="426" y="4256" fill="#9ca3af" font-size="22" font-family="monospace">coast-fork-room</text>
<rect x="40" y="4330" width="520" height="440" fill="#1f2937" stroke="#374151" stroke-width="2"/>
<text x="46" y="4346" fill="#9ca3af" font-size="22" font-family="monospace">coast-ferry-shrine-room</text>
<rect x="1690" y="4640" width="700" height="360" fill="#1f2937" stroke="#374151" stroke-width="2"/>
<text x="1696" y="4656" fill="#9ca3af" font-size="22" font-family="monospace">coast-tidepool-room</text>
<rect x="1320" y="4810" width="560" height="420" fill="#1f2937" stroke="#374151" stroke-width="2"/>
<text x="1326" y="4826" fill="#9ca3af" font-size="22" font-family="monospace">coast-jetty-vista-room</text>
<rect x="-430" y="1050" width="620" height="420" fill="#1f2937" stroke="#374151" stroke-width="2"/>
<text x="-424" y="1066" fill="#9ca3af" font-size="22" font-family="monospace">silverpine-lower-room</text>
<rect x="1840" y="3060" width="760" height="520" fill="#1f2937" stroke="#374151" stroke-width="2"/>
<text x="1846" y="3076" fill="#9ca3af" font-size="22" font-family="monospace">wildwood-threshold-room</text>
<rect x="650" y="3050" width="650" height="1000" fill="#1f2937" stroke="#374151" stroke-width="2"/>
<text x="656" y="3066" fill="#9ca3af" font-size="22" font-family="monospace">wildwood-approach-room</text>
<rect x="1040" y="2340" width="560" height="420" fill="#1f2937" stroke="#374151" stroke-width="2"/>
<text x="1046" y="2356" fill="#9ca3af" font-size="22" font-family="monospace">wildwood-side-clearing-room</text>
<rect x="1700" y="-60" width="720" height="480" fill="#1f2937" stroke="#374151" stroke-width="2"/>
<text x="1706" y="-44" fill="#9ca3af" font-size="22" font-family="monospace">wildwood-combat-room</text>
<rect x="2380" y="440" width="560" height="520" fill="#1f2937" stroke="#374151" stroke-width="2"/>
<text x="2386" y="456" fill="#9ca3af" font-size="22" font-family="monospace">wildwood-cave-room</text>
<rect x="3036" y="-1100" width="64" height="6400" fill="#b91c1c" fill-opacity="0.55" stroke="#ef4444" stroke-width="1"/>
<rect x="1668" y="2100" width="64" height="2100" fill="#b91c1c" fill-opacity="0.55" stroke="#ef4444" stroke-width="1"/>
<rect x="2768" y="2100" width="64" height="2100" fill="#b91c1c" fill-opacity="0.55" stroke="#ef4444" stroke-width="1"/>
<rect x="2068" y="850" width="64" height="1100" fill="#b91c1c" fill-opacity="0.55" stroke="#ef4444" stroke-width="1"/>
<rect x="2868" y="1100" width="64" height="1100" fill="#b91c1c" fill-opacity="0.55" stroke="#ef4444" stroke-width="1"/>
<rect x="168" y="-300" width="64" height="2000" fill="#b91c1c" fill-opacity="0.55" stroke="#ef4444" stroke-width="1"/>
<rect x="168" y="3350" width="64" height="400" fill="#b91c1c" fill-opacity="0.55" stroke="#ef4444" stroke-width="1"/>
<rect x="748" y="4625" width="64" height="450" fill="#b91c1c" fill-opacity="0.55" stroke="#ef4444" stroke-width="1"/>
<rect x="-40" y="1692" width="480" height="96" fill="#b91c1c" fill-opacity="0.55" stroke="#ef4444" stroke-width="1"/>
<rect x="878" y="2670" width="64" height="620" fill="#b91c1c" fill-opacity="0.55" stroke="#ef4444" stroke-width="1"/>
<rect x="704" y="3890" width="32" height="520" fill="#b91c1c" fill-opacity="0.55" stroke="#ef4444" stroke-width="1"/>
<rect x="1064" y="3890" width="32" height="520" fill="#b91c1c" fill-opacity="0.55" stroke="#ef4444" stroke-width="1"/>
<rect x="910" y="4544" width="500" height="32" fill="#b91c1c" fill-opacity="0.55" stroke="#ef4444" stroke-width="1"/>
<rect x="40" y="3394" width="520" height="32" fill="#b91c1c" fill-opacity="0.55" stroke="#ef4444" stroke-width="1"/>
<rect x="400" y="2254" width="280" height="32" fill="#b91c1c" fill-opacity="0.55" stroke="#ef4444" stroke-width="1"/>
<rect x="2532" y="588" width="256" height="224" fill="#b91c1c" fill-opacity="0.55" stroke="#ef4444" stroke-width="1"/>
<rect x="120" y="4460" width="360" height="320" fill="#b91c1c" fill-opacity="0.55" stroke="#ef4444" stroke-width="1"/>
<rect x="-40" y="1720" width="480" height="320" fill="#b91c1c" fill-opacity="0.55" stroke="#ef4444" stroke-width="1"/>
<rect x="140" y="2825" width="120" height="150" fill="#b91c1c" fill-opacity="0.55" stroke="#ef4444" stroke-width="1"/>
<rect x="2740" y="-530" width="160" height="900" fill="#b91c1c" fill-opacity="0.55" stroke="#ef4444" stroke-width="1"/>
<rect x="1060" y="1955" width="80" height="70" fill="#b91c1c" fill-opacity="0.55" stroke="#ef4444" stroke-width="1"/>
<rect x="1560" y="3255" width="80" height="70" fill="#b91c1c" fill-opacity="0.55" stroke="#ef4444" stroke-width="1"/>
<rect x="1150" y="4045" width="1100" height="110" fill="#b91c1c" fill-opacity="0.55" stroke="#ef4444" stroke-width="1"/>
<rect x="1150" y="4345" width="1100" height="110" fill="#b91c1c" fill-opacity="0.55" stroke="#ef4444" stroke-width="1"/>
<rect x="1935" y="3385" width="90" height="110" fill="#b91c1c" fill-opacity="0.55" stroke="#ef4444" stroke-width="1"/>
<rect x="2555" y="3385" width="90" height="110" fill="#b91c1c" fill-opacity="0.55" stroke="#ef4444" stroke-width="1"/>
<rect x="1135" y="2380" width="90" height="80" fill="#b91c1c" fill-opacity="0.55" stroke="#ef4444" stroke-width="1"/>
<rect x="1155" y="3710" width="90" height="80" fill="#b91c1c" fill-opacity="0.55" stroke="#ef4444" stroke-width="1"/>
<rect x="2360" y="1045" width="80" height="70" fill="#b91c1c" fill-opacity="0.55" stroke="#ef4444" stroke-width="1"/>
<rect x="2635" y="1090" width="90" height="80" fill="#b91c1c" fill-opacity="0.55" stroke="#ef4444" stroke-width="1"/>
<rect x="1695" y="230" width="90" height="120" fill="#b91c1c" fill-opacity="0.55" stroke="#ef4444" stroke-width="1"/>
<rect x="2335" y="230" width="90" height="120" fill="#b91c1c" fill-opacity="0.55" stroke="#ef4444" stroke-width="1"/>
<rect x="2415" y="875" width="90" height="90" fill="#b91c1c" fill-opacity="0.55" stroke="#ef4444" stroke-width="1"/>
<rect x="295" y="360" width="90" height="80" fill="#b91c1c" fill-opacity="0.55" stroke="#ef4444" stroke-width="1"/>
<rect x="95" y="1290" width="90" height="100" fill="#b91c1c" fill-opacity="0.55" stroke="#ef4444" stroke-width="1"/>
<rect x="175" y="475" width="90" height="90" fill="#b91c1c" fill-opacity="0.55" stroke="#ef4444" stroke-width="1"/>
<rect x="200" y="4590" width="200" height="140" fill="#b91c1c" fill-opacity="0.55" stroke="#ef4444" stroke-width="1"/>
<rect x="1760" y="4730" width="200" height="120" fill="#b91c1c" fill-opacity="0.55" stroke="#ef4444" stroke-width="1"/>
<rect x="400" y="4260" width="260" height="80" fill="#b91c1c" fill-opacity="0.55" stroke="#ef4444" stroke-width="1"/>
<rect x="30" y="4510" width="180" height="80" fill="#b91c1c" fill-opacity="0.55" stroke="#ef4444" stroke-width="1"/>
<rect x="2240" y="4680" width="220" height="80" fill="#b91c1c" fill-opacity="0.55" stroke="#ef4444" stroke-width="1"/>
<rect x="1670" y="4860" width="180" height="80" fill="#b91c1c" fill-opacity="0.55" stroke="#ef4444" stroke-width="1"/>
<rect x="155" y="2900" width="90" height="80" fill="#b91c1c" fill-opacity="0.55" stroke="#ef4444" stroke-width="1"/>
<rect x="35" y="2450" width="50" height="60" fill="#b91c1c" fill-opacity="0.55" stroke="#ef4444" stroke-width="1"/>
<rect x="315" y="2450" width="50" height="60" fill="#b91c1c" fill-opacity="0.55" stroke="#ef4444" stroke-width="1"/>
<rect x="410" y="3080" width="220" height="120" fill="#b91c1c" fill-opacity="0.55" stroke="#ef4444" stroke-width="1"/>
<polyline points="700,3200 900,4247 2300,4247 2220,3320 2300,2100 2660,700" fill="none" stroke="#22d3ee" stroke-width="6" stroke-opacity="0.9"/>
<circle cx="700" cy="3200" r="14" fill="#22d3ee"/>
<circle cx="900" cy="4247" r="14" fill="#22d3ee"/>
<circle cx="2300" cy="4247" r="14" fill="#22d3ee"/>
<circle cx="2220" cy="3320" r="14" fill="#22d3ee"/>
<circle cx="2300" cy="2100" r="14" fill="#22d3ee"/>
<circle cx="2660" cy="700" r="14" fill="#22d3ee"/>
<text x="12" y="28" fill="#e5e7eb" font-size="26" font-family="monospace">crossroads-to-wildwood — cyan=route, red=boundaries, gray=rooms</text>
</svg>