<svg xmlns="http://www.w3.org/2000/svg" viewBox="0 0 2000 3880" width="500" height="970">
<rect width="2000" height="3880" fill="#0d1117"/>
<rect x="850" y="3730" width="900" height="900" fill="#1f2937" stroke="#374151" stroke-width="2"/>
<text x="856" y="3746" fill="#9ca3af" font-size="22" font-family="monospace">crossroads-hub-room</text>
<rect x="-430" y="2750" width="760" height="360" fill="#1f2937" stroke="#374151" stroke-width="2"/>
<text x="-424" y="2766" fill="#9ca3af" font-size="22" font-family="monospace">mistfen-entry-room</text>
<rect x="-50" y="2930" width="900" height="400" fill="#1f2937" stroke="#374151" stroke-width="2"/>
<text x="-44" y="2946" fill="#9ca3af" font-size="22" font-family="monospace">mistfen-crossroads-exit-room</text>
<rect x="670" y="2330" width="620" height="420" fill="#1f2937" stroke="#374151" stroke-width="2"/>
<text x="676" y="2346" fill="#9ca3af" font-size="22" font-family="monospace">silverpine-lower-room</text>
<rect x="140" y="1510" width="560" height="460" fill="#1f2937" stroke="#374151" stroke-width="2"/>
<text x="146" y="1526" fill="#9ca3af" font-size="22" font-family="monospace">silverpine-offering-grove-room</text>
<rect x="350" y="470" width="900" height="600" fill="#1f2937" stroke="#374151" stroke-width="2"/>
<text x="356" y="486" fill="#9ca3af" font-size="22" font-family="monospace">silverpine-terrace-room</text>
<rect x="-2200" y="180" width="6400" height="64" fill="#b91c1c" fill-opacity="0.55" stroke="#ef4444" stroke-width="1"/>
<rect x="868" y="2780" width="64" height="500" fill="#b91c1c" fill-opacity="0.55" stroke="#ef4444" stroke-width="1"/>
<rect x="590" y="472" width="420" height="96" fill="#b91c1c" fill-opacity="0.55" stroke="#ef4444" stroke-width="1"/>
<rect x="518" y="1980" width="64" height="1100" fill="#b91c1c" fill-opacity="0.55" stroke="#ef4444" stroke-width="1"/>
<rect x="668" y="1055" width="64" height="450" fill="#b91c1c" fill-opacity="0.55" stroke="#ef4444" stroke-width="1"/>
<rect x="1268" y="980" width="64" height="2000" fill="#b91c1c" fill-opacity="0.55" stroke="#ef4444" stroke-width="1"/>
<rect x="1060" y="2972" width="480" height="96" fill="#b91c1c" fill-opacity="0.55" stroke="#ef4444" stroke-width="1"/>
<rect x="768" y="3800" width="64" height="760" fill="#b91c1c" fill-opacity="0.55" stroke="#ef4444" stroke-width="1"/>
<rect x="820" y="3534" width="280" height="32" fill="#b91c1c" fill-opacity="0.55" stroke="#ef4444" stroke-width="1"/>
<rect x="1500" y="3534" width="280" height="32" fill="#b91c1c" fill-opacity="0.55" stroke="#ef4444" stroke-width="1"/>
<rect x="590" y="500" width="420" height="320" fill="#b91c1c" fill-opacity="0.55" stroke="#ef4444" stroke-width="1"/>
<rect x="1060" y="3000" width="480" height="320" fill="#b91c1c" fill-opacity="0.55" stroke="#ef4444" stroke-width="1"/>
<rect x="-730" y="2755" width="760" height="110" fill="#b91c1c" fill-opacity="0.55" stroke="#ef4444" stroke-width="1"/>
<rect x="-730" y="3015" width="760" height="110" fill="#b91c1c" fill-opacity="0.55" stroke="#ef4444" stroke-width="1"/>
<rect x="465" y="965" width="70" height="70" fill="#b91c1c" fill-opacity="0.55" stroke="#ef4444" stroke-width="1"/>
<rect x="1065" y="965" width="70" height="70" fill="#b91c1c" fill-opacity="0.55" stroke="#ef4444" stroke-width="1"/>
<rect x="175" y="1760" width="90" height="80" fill="#b91c1c" fill-opacity="0.55" stroke="#ef4444" stroke-width="1"/>
<rect x="575" y="1600" width="90" height="80" fill="#b91c1c" fill-opacity="0.55" stroke="#ef4444" stroke-width="1"/>
<rect x="295" y="1540" width="90" height="80" fill="#b91c1c" fill-opacity="0.55" stroke="#ef4444" stroke-width="1"/>
<rect x="1395" y="1640" width="90" height="80" fill="#b91c1c" fill-opacity="0.55" stroke="#ef4444" stroke-width="1"/>
<rect x="455" y="2140" width="90" height="80" fill="#b91c1c" fill-opacity="0.55" stroke="#ef4444" stroke-width="1"/>
<rect x="845" y="1285" width="70" height="70" fill="#b91c1c" fill-opacity="0.55" stroke="#ef4444" stroke-width="1"/>
<rect x="675" y="2570" width="90" height="100" fill="#b91c1c" fill-opacity="0.55" stroke="#ef4444" stroke-width="1"/>
<rect x="1195" y="2570" width="90" height="100" fill="#b91c1c" fill-opacity="0.55" stroke="#ef4444" stroke-width="1"/>
<rect x="375" y="2015" width="90" height="90" fill="#b91c1c" fill-opacity="0.55" stroke="#ef4444" stroke-width="1"/>
<rect x="1275" y="1755" width="90" height="90" fill="#b91c1c" fill-opacity="0.55" stroke="#ef4444" stroke-width="1"/>
<rect x="55" y="1855" width="90" height="90" fill="#b91c1c" fill-opacity="0.55" stroke="#ef4444" stroke-width="1"/>
<rect x="250" y="1075" width="220" height="90" fill="#b91c1c" fill-opacity="0.55" stroke="#ef4444" stroke-width="1"/>
<rect x="1135" y="3730" width="50" height="60" fill="#b91c1c" fill-opacity="0.55" stroke="#ef4444" stroke-width="1"/>
<rect x="1415" y="3730" width="50" height="60" fill="#b91c1c" fill-opacity="0.55" stroke="#ef4444" stroke-width="1"/>
<polyline points="1300,3180 1100,3130 980,2540 700,2000 1020,1500 800,940 800,700" fill="none" stroke="#22d3ee" stroke-width="6" stroke-opacity="0.9"/>
<circle cx="1300" cy="3180" r="14" fill="#22d3ee"/>
<circle cx="1100" cy="3130" r="14" fill="#22d3ee"/>
<circle cx="980" cy="2540" r="14" fill="#22d3ee"/>
<circle cx="700" cy="2000" r="14" fill="#22d3ee"/>
<circle cx="1020" cy="1500" r="14" fill="#22d3ee"/>
<circle cx="800" cy="940" r="14" fill="#22d3ee"/>
<circle cx="800" cy="700" r="14" fill="#22d3ee"/>
<text x="12" y="28" fill="#e5e7eb" font-size="26" font-family="monospace">crossroads-to-silverpine — cyan=route, red=boundaries, gray=rooms</text>
</svg>