<svg xmlns="http://www.w3.org/2000/svg" viewBox="0 0 3250 3930" width="812.5" height="982.5">
<rect width="3250" height="3930" fill="#0d1117"/>
<rect x="2550" y="3630" width="900" height="900" fill="#1f2937" stroke="#374151" stroke-width="2"/>
<text x="2556" y="3646" fill="#9ca3af" font-size="22" font-family="monospace">crossroads-hub-room</text>
<rect x="1270" y="2650" width="760" height="360" fill="#1f2937" stroke="#374151" stroke-width="2"/>
<text x="1276" y="2666" fill="#9ca3af" font-size="22" font-family="monospace">mistfen-entry-room</text>
<rect x="780" y="2160" width="560" height="360" fill="#1f2937" stroke="#374151" stroke-width="2"/>
<text x="786" y="2176" fill="#9ca3af" font-size="22" font-family="monospace">mistfen-east-pool-room</text>
<rect x="320" y="430" width="760" height="540" fill="#1f2937" stroke="#374151" stroke-width="2"/>
<text x="326" y="446" fill="#9ca3af" font-size="22" font-family="monospace">mistfen-gate-room</text>
<rect x="2370" y="2230" width="620" height="420" fill="#1f2937" stroke="#374151" stroke-width="2"/>
<text x="2376" y="2246" fill="#9ca3af" font-size="22" font-family="monospace">silverpine-lower-room</text>
<rect x="1840" y="1410" width="560" height="460" fill="#1f2937" stroke="#374151" stroke-width="2"/>
<text x="1846" y="1426" fill="#9ca3af" font-size="22" font-family="monospace">silverpine-offering-grove-room</text>
<rect x="2050" y="370" width="900" height="600" fill="#1f2937" stroke="#374151" stroke-width="2"/>
<text x="2056" y="386" fill="#9ca3af" font-size="22" font-family="monospace">silverpine-terrace-room</text>
<rect x="-500" y="80" width="6400" height="64" fill="#b91c1c" fill-opacity="0.55" stroke="#ef4444" stroke-width="1"/>
<rect x="508" y="502" width="384" height="96" fill="#b91c1c" fill-opacity="0.55" stroke="#ef4444" stroke-width="1"/>
<rect x="90" y="1330" width="420" height="300" fill="#b91c1c" fill-opacity="0.55" stroke="#ef4444" stroke-width="1"/>
<rect x="1020" y="2040" width="360" height="280" fill="#b91c1c" fill-opacity="0.55" stroke="#ef4444" stroke-width="1"/>
<rect x="2568" y="2680" width="64" height="500" fill="#b91c1c" fill-opacity="0.55" stroke="#ef4444" stroke-width="1"/>
<rect x="548" y="1530" width="64" height="600" fill="#b91c1c" fill-opacity="0.55" stroke="#ef4444" stroke-width="1"/>
<rect x="2290" y="372" width="420" height="96" fill="#b91c1c" fill-opacity="0.55" stroke="#ef4444" stroke-width="1"/>
<rect x="2808" y="2780" width="64" height="300" fill="#b91c1c" fill-opacity="0.55" stroke="#ef4444" stroke-width="1"/>
<rect x="3128" y="2780" width="64" height="300" fill="#b91c1c" fill-opacity="0.55" stroke="#ef4444" stroke-width="1"/>
<rect x="2648" y="2638" width="384" height="64" fill="#b91c1c" fill-opacity="0.55" stroke="#ef4444" stroke-width="1"/>
<rect x="2648" y="2958" width="384" height="64" fill="#b91c1c" fill-opacity="0.55" stroke="#ef4444" stroke-width="1"/>
<rect x="2488" y="2620" width="64" height="240" fill="#b91c1c" fill-opacity="0.55" stroke="#ef4444" stroke-width="1"/>
<rect x="2808" y="2620" width="64" height="240" fill="#b91c1c" fill-opacity="0.55" stroke="#ef4444" stroke-width="1"/>
<rect x="2208" y="1880" width="64" height="370" fill="#b91c1c" fill-opacity="0.55" stroke="#ef4444" stroke-width="1"/>
<rect x="2528" y="1880" width="64" height="370" fill="#b91c1c" fill-opacity="0.55" stroke="#ef4444" stroke-width="1"/>
<rect x="2360" y="1468" width="400" height="64" fill="#b91c1c" fill-opacity="0.55" stroke="#ef4444" stroke-width="1"/>
<rect x="2360" y="1788" width="400" height="64" fill="#b91c1c" fill-opacity="0.55" stroke="#ef4444" stroke-width="1"/>
<rect x="2528" y="1370" width="64" height="320" fill="#b91c1c" fill-opacity="0.55" stroke="#ef4444" stroke-width="1"/>
<rect x="2848" y="1370" width="64" height="320" fill="#b91c1c" fill-opacity="0.55" stroke="#ef4444" stroke-width="1"/>
<rect x="2560" y="1208" width="200" height="64" fill="#b91c1c" fill-opacity="0.55" stroke="#ef4444" stroke-width="1"/>
<rect x="2560" y="1528" width="200" height="64" fill="#b91c1c" fill-opacity="0.55" stroke="#ef4444" stroke-width="1"/>
<rect x="2408" y="1050" width="64" height="380" fill="#b91c1c" fill-opacity="0.55" stroke="#ef4444" stroke-width="1"/>
<rect x="2728" y="1050" width="64" height="380" fill="#b91c1c" fill-opacity="0.55" stroke="#ef4444" stroke-width="1"/>
<rect x="2468" y="888" width="164" height="64" fill="#b91c1c" fill-opacity="0.55" stroke="#ef4444" stroke-width="1"/>
<rect x="2468" y="1208" width="164" height="64" fill="#b91c1c" fill-opacity="0.55" stroke="#ef4444" stroke-width="1"/>
<rect x="2308" y="1020" width="64" height="120" fill="#b91c1c" fill-opacity="0.55" stroke="#ef4444" stroke-width="1"/>
<rect x="2628" y="1020" width="64" height="120" fill="#b91c1c" fill-opacity="0.55" stroke="#ef4444" stroke-width="1"/>
<rect x="3048" y="1180" width="64" height="380" fill="#b91c1c" fill-opacity="0.55" stroke="#ef4444" stroke-width="1"/>
<rect x="2800" y="1238" width="320" height="64" fill="#b91c1c" fill-opacity="0.55" stroke="#ef4444" stroke-width="1"/>
<rect x="2800" y="1498" width="320" height="64" fill="#b91c1c" fill-opacity="0.55" stroke="#ef4444" stroke-width="1"/>
<rect x="1828" y="1380" width="64" height="520" fill="#b91c1c" fill-opacity="0.55" stroke="#ef4444" stroke-width="1"/>
<rect x="1840" y="1348" width="560" height="64" fill="#b91c1c" fill-opacity="0.55" stroke="#ef4444" stroke-width="1"/>
<rect x="1860" y="1868" width="480" height="64" fill="#b91c1c" fill-opacity="0.55" stroke="#ef4444" stroke-width="1"/>
<rect x="2760" y="2872" width="480" height="96" fill="#b91c1c" fill-opacity="0.55" stroke="#ef4444" stroke-width="1"/>
<rect x="2468" y="3700" width="64" height="760" fill="#b91c1c" fill-opacity="0.55" stroke="#ef4444" stroke-width="1"/>
<rect x="2520" y="3434" width="280" height="32" fill="#b91c1c" fill-opacity="0.55" stroke="#ef4444" stroke-width="1"/>
<rect x="3200" y="3434" width="280" height="32" fill="#b91c1c" fill-opacity="0.55" stroke="#ef4444" stroke-width="1"/>
<rect x="520" y="550" width="360" height="300" fill="#b91c1c" fill-opacity="0.55" stroke="#ef4444" stroke-width="1"/>
<rect x="2290" y="400" width="420" height="320" fill="#b91c1c" fill-opacity="0.55" stroke="#ef4444" stroke-width="1"/>
<rect x="2760" y="2900" width="480" height="320" fill="#b91c1c" fill-opacity="0.55" stroke="#ef4444" stroke-width="1"/>
<rect x="80" y="1225" width="80" height="70" fill="#b91c1c" fill-opacity="0.55" stroke="#ef4444" stroke-width="1"/>
<rect x="1360" y="1605" width="80" height="70" fill="#b91c1c" fill-opacity="0.55" stroke="#ef4444" stroke-width="1"/>
<rect x="1285" y="2280" width="110" height="200" fill="#b91c1c" fill-opacity="0.55" stroke="#ef4444" stroke-width="1"/>
<rect x="645" y="2100" width="150" height="200" fill="#b91c1c" fill-opacity="0.55" stroke="#ef4444" stroke-width="1"/>
<rect x="970" y="2655" width="760" height="110" fill="#b91c1c" fill-opacity="0.55" stroke="#ef4444" stroke-width="1"/>
<rect x="970" y="2915" width="760" height="110" fill="#b91c1c" fill-opacity="0.55" stroke="#ef4444" stroke-width="1"/>
<rect x="930" y="1775" width="80" height="70" fill="#b91c1c" fill-opacity="0.55" stroke="#ef4444" stroke-width="1"/>
<rect x="160" y="2355" width="120" height="90" fill="#b91c1c" fill-opacity="0.55" stroke="#ef4444" stroke-width="1"/>
<rect x="400" y="880" width="120" height="760" fill="#b91c1c" fill-opacity="0.55" stroke="#ef4444" stroke-width="1"/>
<rect x="910" y="780" width="120" height="760" fill="#b91c1c" fill-opacity="0.55" stroke="#ef4444" stroke-width="1"/>
<rect x="2165" y="865" width="70" height="70" fill="#b91c1c" fill-opacity="0.55" stroke="#ef4444" stroke-width="1"/>
<rect x="2765" y="865" width="70" height="70" fill="#b91c1c" fill-opacity="0.55" stroke="#ef4444" stroke-width="1"/>
<rect x="1875" y="1660" width="90" height="80" fill="#b91c1c" fill-opacity="0.55" stroke="#ef4444" stroke-width="1"/>
<rect x="2275" y="1500" width="90" height="80" fill="#b91c1c" fill-opacity="0.55" stroke="#ef4444" stroke-width="1"/>
<rect x="1995" y="1440" width="90" height="80" fill="#b91c1c" fill-opacity="0.55" stroke="#ef4444" stroke-width="1"/>
<rect x="3095" y="1540" width="90" height="80" fill="#b91c1c" fill-opacity="0.55" stroke="#ef4444" stroke-width="1"/>
<rect x="2155" y="2040" width="90" height="80" fill="#b91c1c" fill-opacity="0.55" stroke="#ef4444" stroke-width="1"/>
<rect x="2545" y="1185" width="70" height="70" fill="#b91c1c" fill-opacity="0.55" stroke="#ef4444" stroke-width="1"/>
<rect x="2375" y="2470" width="90" height="100" fill="#b91c1c" fill-opacity="0.55" stroke="#ef4444" stroke-width="1"/>
<rect x="2895" y="2470" width="90" height="100" fill="#b91c1c" fill-opacity="0.55" stroke="#ef4444" stroke-width="1"/>
<rect x="2075" y="1915" width="90" height="90" fill="#b91c1c" fill-opacity="0.55" stroke="#ef4444" stroke-width="1"/>
<rect x="2975" y="1655" width="90" height="90" fill="#b91c1c" fill-opacity="0.55" stroke="#ef4444" stroke-width="1"/>
<rect x="1755" y="1755" width="90" height="90" fill="#b91c1c" fill-opacity="0.55" stroke="#ef4444" stroke-width="1"/>
<rect x="1950" y="975" width="220" height="90" fill="#b91c1c" fill-opacity="0.55" stroke="#ef4444" stroke-width="1"/>
<rect x="2835" y="3630" width="50" height="60" fill="#b91c1c" fill-opacity="0.55" stroke="#ef4444" stroke-width="1"/>
<rect x="3115" y="3630" width="50" height="60" fill="#b91c1c" fill-opacity="0.55" stroke="#ef4444" stroke-width="1"/>
<polyline points="2550,3230 2190,2830 1650,2830 1260,2620 900,2110 750,1830 700,700" fill="none" stroke="#22d3ee" stroke-width="6" stroke-opacity="0.9"/>
<circle cx="2550" cy="3230" r="14" fill="#22d3ee"/>
<circle cx="2190" cy="2830" r="14" fill="#22d3ee"/>
<circle cx="1650" cy="2830" r="14" fill="#22d3ee"/>
<circle cx="1260" cy="2620" r="14" fill="#22d3ee"/>
<circle cx="900" cy="2110" r="14" fill="#22d3ee"/>
<circle cx="750" cy="1830" r="14" fill="#22d3ee"/>
<circle cx="700" cy="700" r="14" fill="#22d3ee"/>
<text x="12" y="28" fill="#e5e7eb" font-size="26" font-family="monospace">crossroads-to-mistfen — cyan=route, red=boundaries, gray=rooms</text>
</svg>