<svg xmlns="http://www.w3.org/2000/svg" viewBox="0 0 2800 3580" width="700" height="895">
<rect width="2800" height="3580" fill="#0d1117"/>
<rect x="-200" y="950" width="400" height="300" fill="#1f2937" stroke="#374151" stroke-width="2"/>
<text x="-194" y="966" fill="#9ca3af" font-size="22" font-family="monospace">village-road-reststop-room</text>
<rect x="250" y="250" width="900" height="900" fill="#1f2937" stroke="#374151" stroke-width="2"/>
<text x="256" y="266" fill="#9ca3af" font-size="22" font-family="monospace">crossroads-hub-room</text>
<rect x="920" y="2040" width="760" height="360" fill="#1f2937" stroke="#374151" stroke-width="2"/>
<text x="926" y="2056" fill="#9ca3af" font-size="22" font-family="monospace">coast-fork-room</text>
<rect x="540" y="2130" width="520" height="440" fill="#1f2937" stroke="#374151" stroke-width="2"/>
<text x="546" y="2146" fill="#9ca3af" font-size="22" font-family="monospace">coast-ferry-shrine-room</text>
<rect x="2190" y="2440" width="700" height="360" fill="#1f2937" stroke="#374151" stroke-width="2"/>
<text x="2196" y="2456" fill="#9ca3af" font-size="22" font-family="monospace">coast-tidepool-room</text>
<rect x="1820" y="2610" width="560" height="420" fill="#1f2937" stroke="#374151" stroke-width="2"/>
<text x="1826" y="2626" fill="#9ca3af" font-size="22" font-family="monospace">coast-jetty-vista-room</text>
<rect x="2340" y="860" width="760" height="520" fill="#1f2937" stroke="#374151" stroke-width="2"/>
<text x="2346" y="876" fill="#9ca3af" font-size="22" font-family="monospace">wildwood-threshold-room</text>
<rect x="1540" y="140" width="560" height="420" fill="#1f2937" stroke="#374151" stroke-width="2"/>
<text x="1546" y="156" fill="#9ca3af" font-size="22" font-family="monospace">wildwood-side-clearing-room</text>
<rect x="-2800" y="3036" width="6400" height="64" fill="#b91c1c" fill-opacity="0.55" stroke="#ef4444" stroke-width="1"/>
<rect x="-260" y="608" width="370" height="64" fill="#b91c1c" fill-opacity="0.55" stroke="#ef4444" stroke-width="1"/>
<rect x="-260" y="928" width="370" height="64" fill="#b91c1c" fill-opacity="0.55" stroke="#ef4444" stroke-width="1"/>
<rect x="100" y="1228" width="300" height="64" fill="#b91c1c" fill-opacity="0.55" stroke="#ef4444" stroke-width="1"/>
<rect x="2168" y="-100" width="64" height="2100" fill="#b91c1c" fill-opacity="0.55" stroke="#ef4444" stroke-width="1"/>
<rect x="300" y="2980" width="3000" height="80" fill="#b91c1c" fill-opacity="0.55" stroke="#ef4444" stroke-width="1"/>
<rect x="668" y="1150" width="64" height="400" fill="#b91c1c" fill-opacity="0.55" stroke="#ef4444" stroke-width="1"/>
<rect x="1248" y="2425" width="64" height="450" fill="#b91c1c" fill-opacity="0.55" stroke="#ef4444" stroke-width="1"/>
<rect x="168" y="320" width="64" height="760" fill="#b91c1c" fill-opacity="0.55" stroke="#ef4444" stroke-width="1"/>
<rect x="1378" y="470" width="64" height="620" fill="#b91c1c" fill-opacity="0.55" stroke="#ef4444" stroke-width="1"/>
<rect x="1204" y="1690" width="32" height="520" fill="#b91c1c" fill-opacity="0.55" stroke="#ef4444" stroke-width="1"/>
<rect x="1564" y="1690" width="32" height="520" fill="#b91c1c" fill-opacity="0.55" stroke="#ef4444" stroke-width="1"/>
<rect x="1410" y="2344" width="500" height="32" fill="#b91c1c" fill-opacity="0.55" stroke="#ef4444" stroke-width="1"/>
<rect x="540" y="1194" width="520" height="32" fill="#b91c1c" fill-opacity="0.55" stroke="#ef4444" stroke-width="1"/>
<rect x="220" y="54" width="280" height="32" fill="#b91c1c" fill-opacity="0.55" stroke="#ef4444" stroke-width="1"/>
<rect x="900" y="54" width="280" height="32" fill="#b91c1c" fill-opacity="0.55" stroke="#ef4444" stroke-width="1"/>
<rect x="620" y="2260" width="360" height="320" fill="#b91c1c" fill-opacity="0.55" stroke="#ef4444" stroke-width="1"/>
<rect x="640" y="625" width="120" height="150" fill="#b91c1c" fill-opacity="0.55" stroke="#ef4444" stroke-width="1"/>
<rect x="2060" y="1055" width="80" height="70" fill="#b91c1c" fill-opacity="0.55" stroke="#ef4444" stroke-width="1"/>
<rect x="1650" y="1845" width="1100" height="110" fill="#b91c1c" fill-opacity="0.55" stroke="#ef4444" stroke-width="1"/>
<rect x="1650" y="2145" width="1100" height="110" fill="#b91c1c" fill-opacity="0.55" stroke="#ef4444" stroke-width="1"/>
<rect x="2435" y="1185" width="90" height="110" fill="#b91c1c" fill-opacity="0.55" stroke="#ef4444" stroke-width="1"/>
<rect x="1635" y="180" width="90" height="80" fill="#b91c1c" fill-opacity="0.55" stroke="#ef4444" stroke-width="1"/>
<rect x="1655" y="1510" width="90" height="80" fill="#b91c1c" fill-opacity="0.55" stroke="#ef4444" stroke-width="1"/>
<rect x="700" y="2390" width="200" height="140" fill="#b91c1c" fill-opacity="0.55" stroke="#ef4444" stroke-width="1"/>
<rect x="2260" y="2530" width="200" height="120" fill="#b91c1c" fill-opacity="0.55" stroke="#ef4444" stroke-width="1"/>
<rect x="900" y="2060" width="260" height="80" fill="#b91c1c" fill-opacity="0.55" stroke="#ef4444" stroke-width="1"/>
<rect x="530" y="2310" width="180" height="80" fill="#b91c1c" fill-opacity="0.55" stroke="#ef4444" stroke-width="1"/>
<rect x="2740" y="2480" width="220" height="80" fill="#b91c1c" fill-opacity="0.55" stroke="#ef4444" stroke-width="1"/>
<rect x="2170" y="2660" width="180" height="80" fill="#b91c1c" fill-opacity="0.55" stroke="#ef4444" stroke-width="1"/>
<rect x="655" y="700" width="90" height="80" fill="#b91c1c" fill-opacity="0.55" stroke="#ef4444" stroke-width="1"/>
<rect x="535" y="250" width="50" height="60" fill="#b91c1c" fill-opacity="0.55" stroke="#ef4444" stroke-width="1"/>
<rect x="815" y="250" width="50" height="60" fill="#b91c1c" fill-opacity="0.55" stroke="#ef4444" stroke-width="1"/>
<rect x="910" y="880" width="220" height="120" fill="#b91c1c" fill-opacity="0.55" stroke="#ef4444" stroke-width="1"/>
<polyline points="700,700 1100,1400 1400,2200 1800,2540 2100,2880" fill="none" stroke="#22d3ee" stroke-width="6" stroke-opacity="0.9"/>
<circle cx="700" cy="700" r="14" fill="#22d3ee"/>
<circle cx="1100" cy="1400" r="14" fill="#22d3ee"/>
<circle cx="1400" cy="2200" r="14" fill="#22d3ee"/>
<circle cx="1800" cy="2540" r="14" fill="#22d3ee"/>
<circle cx="2100" cy="2880" r="14" fill="#22d3ee"/>
<text x="12" y="28" fill="#e5e7eb" font-size="26" font-family="monospace">crossroads-to-coast — cyan=route, red=boundaries, gray=rooms</text>
</svg>