<svg xmlns="http://www.w3.org/2000/svg" viewBox="0 0 3364 2950" width="841" height="737.5">
<rect width="3364" height="2950" fill="#0d1117"/>
<rect x="364" y="1788" width="672" height="512" fill="#1f2937" stroke="#374151" stroke-width="2"/>
<text x="370" y="1804" fill="#9ca3af" font-size="22" font-family="monospace">village-plaza-room</text>
<rect x="864" y="1750" width="1200" height="400" fill="#1f2937" stroke="#374151" stroke-width="2"/>
<text x="870" y="1766" fill="#9ca3af" font-size="22" font-family="monospace">village-east-exit-room</text>
<rect x="1984" y="1430" width="420" height="340" fill="#1f2937" stroke="#374151" stroke-width="2"/>
<text x="1990" y="1446" fill="#9ca3af" font-size="22" font-family="monospace">village-road-reststop-room</text>
<rect x="2214" y="250" width="900" height="900" fill="#1f2937" stroke="#374151" stroke-width="2"/>
<text x="2220" y="266" fill="#9ca3af" font-size="22" font-family="monospace">crossroads-hub-room</text>
<rect x="2884" y="2040" width="760" height="360" fill="#1f2937" stroke="#374151" stroke-width="2"/>
<text x="2890" y="2056" fill="#9ca3af" font-size="22" font-family="monospace">coast-fork-room</text>
<rect x="2504" y="2130" width="520" height="440" fill="#1f2937" stroke="#374151" stroke-width="2"/>
<text x="2510" y="2146" fill="#9ca3af" font-size="22" font-family="monospace">coast-ferry-shrine-room</text>
<rect x="3114" y="850" width="650" height="1000" fill="#1f2937" stroke="#374151" stroke-width="2"/>
<text x="3120" y="866" fill="#9ca3af" font-size="22" font-family="monospace">wildwood-approach-room</text>
<rect x="989" y="1568" width="650" height="64" fill="#b91c1c" fill-opacity="0.55" stroke="#ef4444" stroke-width="1"/>
<rect x="1812" y="1675" width="64" height="350" fill="#b91c1c" fill-opacity="0.55" stroke="#ef4444" stroke-width="1"/>
<rect x="1064" y="1068" width="1000" height="64" fill="#b91c1c" fill-opacity="0.55" stroke="#ef4444" stroke-width="1"/>
<rect x="2632" y="1150" width="64" height="400" fill="#b91c1c" fill-opacity="0.55" stroke="#ef4444" stroke-width="1"/>
<rect x="3212" y="2425" width="64" height="450" fill="#b91c1c" fill-opacity="0.55" stroke="#ef4444" stroke-width="1"/>
<rect x="2132" y="320" width="64" height="760" fill="#b91c1c" fill-opacity="0.55" stroke="#ef4444" stroke-width="1"/>
<rect x="3342" y="470" width="64" height="620" fill="#b91c1c" fill-opacity="0.55" stroke="#ef4444" stroke-width="1"/>
<rect x="268" y="2092" width="32" height="288" fill="#b91c1c" fill-opacity="0.55" stroke="#ef4444" stroke-width="1"/>
<rect x="1100" y="2092" width="32" height="288" fill="#b91c1c" fill-opacity="0.55" stroke="#ef4444" stroke-width="1"/>
<rect x="1524" y="1519" width="620" height="32" fill="#b91c1c" fill-opacity="0.55" stroke="#ef4444" stroke-width="1"/>
<rect x="1644" y="1249" width="560" height="32" fill="#b91c1c" fill-opacity="0.55" stroke="#ef4444" stroke-width="1"/>
<rect x="2073" y="1080" width="32" height="360" fill="#b91c1c" fill-opacity="0.55" stroke="#ef4444" stroke-width="1"/>
<rect x="2358" y="1090" width="32" height="340" fill="#b91c1c" fill-opacity="0.55" stroke="#ef4444" stroke-width="1"/>
<rect x="2089" y="1734" width="330" height="32" fill="#b91c1c" fill-opacity="0.55" stroke="#ef4444" stroke-width="1"/>
<rect x="3168" y="1690" width="32" height="520" fill="#b91c1c" fill-opacity="0.55" stroke="#ef4444" stroke-width="1"/>
<rect x="2504" y="1194" width="520" height="32" fill="#b91c1c" fill-opacity="0.55" stroke="#ef4444" stroke-width="1"/>
<rect x="2184" y="54" width="280" height="32" fill="#b91c1c" fill-opacity="0.55" stroke="#ef4444" stroke-width="1"/>
<rect x="2864" y="54" width="280" height="32" fill="#b91c1c" fill-opacity="0.55" stroke="#ef4444" stroke-width="1"/>
<rect x="1020" y="2396" width="384" height="346" fill="#b91c1c" fill-opacity="0.55" stroke="#ef4444" stroke-width="1"/>
<rect x="1148.5" y="1187" width="307" height="294" fill="#b91c1c" fill-opacity="0.55" stroke="#ef4444" stroke-width="1"/>
<rect x="-36" y="1155" width="422" height="326" fill="#b91c1c" fill-opacity="0.55" stroke="#ef4444" stroke-width="1"/>
<rect x="1641" y="1270" width="230" height="416" fill="#b91c1c" fill-opacity="0.55" stroke="#ef4444" stroke-width="1"/>
<rect x="629.5" y="1961" width="141" height="160" fill="#b91c1c" fill-opacity="0.55" stroke="#ef4444" stroke-width="1"/>
<rect x="60.5" y="2364" width="307" height="416" fill="#b91c1c" fill-opacity="0.55" stroke="#ef4444" stroke-width="1"/>
<rect x="2584" y="2260" width="360" height="320" fill="#b91c1c" fill-opacity="0.55" stroke="#ef4444" stroke-width="1"/>
<rect x="2604" y="625" width="120" height="150" fill="#b91c1c" fill-opacity="0.55" stroke="#ef4444" stroke-width="1"/>
<rect x="1839" y="1510" width="50" height="60" fill="#b91c1c" fill-opacity="0.55" stroke="#ef4444" stroke-width="1"/>
<rect x="304" y="1855" width="80" height="70" fill="#b91c1c" fill-opacity="0.55" stroke="#ef4444" stroke-width="1"/>
<rect x="964" y="2185" width="200" height="110" fill="#b91c1c" fill-opacity="0.55" stroke="#ef4444" stroke-width="1"/>
<rect x="2664" y="2390" width="200" height="140" fill="#b91c1c" fill-opacity="0.55" stroke="#ef4444" stroke-width="1"/>
<rect x="2864" y="2060" width="260" height="80" fill="#b91c1c" fill-opacity="0.55" stroke="#ef4444" stroke-width="1"/>
<rect x="2494" y="2310" width="180" height="80" fill="#b91c1c" fill-opacity="0.55" stroke="#ef4444" stroke-width="1"/>
<rect x="2619" y="700" width="90" height="80" fill="#b91c1c" fill-opacity="0.55" stroke="#ef4444" stroke-width="1"/>
<rect x="2499" y="250" width="50" height="60" fill="#b91c1c" fill-opacity="0.55" stroke="#ef4444" stroke-width="1"/>
<rect x="2779" y="250" width="50" height="60" fill="#b91c1c" fill-opacity="0.55" stroke="#ef4444" stroke-width="1"/>
<rect x="2874" y="880" width="220" height="120" fill="#b91c1c" fill-opacity="0.55" stroke="#ef4444" stroke-width="1"/>
<polyline points="700,2250 1500,2047 1914,1400 2664,700" fill="none" stroke="#22d3ee" stroke-width="6" stroke-opacity="0.9"/>
<circle cx="700" cy="2250" r="14" fill="#22d3ee"/>
<circle cx="1500" cy="2047" r="14" fill="#22d3ee"/>
<circle cx="1914" cy="1400" r="14" fill="#22d3ee"/>
<circle cx="2664" cy="700" r="14" fill="#22d3ee"/>
<text x="12" y="28" fill="#e5e7eb" font-size="26" font-family="monospace">spawn-to-crossroads — cyan=route, red=boundaries, gray=rooms</text>
</svg>