<svg xmlns="http://www.w3.org/2000/svg" viewBox="0 0 6400 6400" width="6400" height="6400">
  <rect data-id="protected-0000" x="3776" y="5494" width="128" height="136" fill="#ff3366"/>
  <rect data-id="protected-0001" x="3336" y="3924" width="128" height="136" fill="#ff3366"/>
  <rect data-id="protected-0002" x="3636" y="4224" width="128" height="136" fill="#ff3366"/>
  <rect data-id="protected-0003" x="2336" y="2624" width="128" height="136" fill="#ff3366"/>
  <rect data-id="protected-0004" x="3056" y="1284" width="128" height="136" fill="#ff3366"/>
  <rect data-id="protected-0005" x="1136" y="5252" width="128" height="136" fill="#ff3366"/>
  <rect data-id="protected-0006" x="1168" y="5700" width="128" height="136" fill="#ff3366"/>
  <rect data-id="protected-0007" x="944" y="5188" width="128" height="136" fill="#ff3366"/>
  <rect data-id="protected-0008" x="592" y="4804" width="128" height="136" fill="#ff3366"/>
  <rect data-id="protected-0009" x="5276" y="4444" width="128" height="136" fill="#ff3366"/>
  <rect data-id="protected-0010" x="3244" y="2760" width="512" height="144" fill="#ff3366"/>
  <rect data-id="protected-0011" x="6320" y="0" width="80" height="6400" fill="#ff3366"/>
  <rect data-id="protected-0012" x="0" y="0" width="6400" height="80" fill="#ff3366"/>
  <rect data-id="protected-0013" x="0" y="6304" width="6400" height="96" fill="#ff3366"/>
  <rect data-id="protected-0014" x="0" y="0" width="80" height="6400" fill="#ff3366"/>
  <rect data-id="protected-0015" x="2774" y="260" width="452" height="144" fill="#ff3366"/>
  <rect data-id="protected-0016" x="1424" y="4320" width="64" height="112" fill="#ff3366"/>
  <rect data-id="protected-0017" x="1808" y="4320" width="64" height="112" fill="#ff3366"/>
  <rect data-id="protected-0018" x="304" y="5792" width="1664" height="80" fill="#ff3366"/>
  <rect data-id="protected-0019" x="992" y="390" width="416" height="144" fill="#ff3366"/>
  <rect data-id="protected-0020" x="3228" y="2738" width="544" height="468" fill="#ff3366"/>
  <rect data-id="protected-0021" x="3424" y="5538" width="352" height="348" fill="#ff3366"/>
  <rect data-id="protected-0022" x="4064" y="5868" width="352" height="408" fill="#ff3366"/>
  <rect data-id="protected-0023" x="3414" y="3878" width="172" height="228" fill="#ff3366"/>
  <rect data-id="protected-0024" x="234" y="568" width="2032" height="2348" fill="#ff3366"/>
  <rect data-id="protected-0025" x="1674" y="2338" width="752" height="468" fill="#ff3366"/>
  <rect data-id="protected-0026" x="714" y="438" width="932" height="748" fill="#ff3366"/>
  <rect data-id="protected-0027" x="864" y="1298" width="1132" height="948" fill="#ff3366"/>
  <rect data-id="protected-0028" x="854" y="698" width="212" height="948" fill="#ff3366"/>
  <rect data-id="protected-0029" x="2774" y="238" width="452" height="468" fill="#ff3366"/>
  <rect data-id="protected-0030" x="2744" y="1003" width="192" height="218" fill="#ff3366"/>
  <rect data-id="protected-0031" x="2909" y="613" width="182" height="198" fill="#ff3366"/>
  <rect data-id="protected-0032" x="648" y="5041" width="272" height="238" fill="#ff3366"/>
  <rect data-id="protected-0033" x="1490" y="4332" width="252" height="248" fill="#ff3366"/>
  <rect data-id="protected-0034" x="629" y="5268" width="182" height="168" fill="#ff3366"/>
  <rect data-id="protected-0035" x="1092" y="5354" width="152" height="188" fill="#ff3366"/>
  <rect data-id="protected-0036" x="1604" y="5354" width="152" height="188" fill="#ff3366"/>
  <rect data-id="protected-0037" x="1062" y="5526" width="212" height="228" fill="#ff3366"/>
  <rect data-id="protected-0038" x="1574" y="5526" width="212" height="228" fill="#ff3366"/>
  <rect data-id="protected-0039" x="789" y="5684" width="182" height="168" fill="#ff3366"/>
  <rect data-id="protected-0040" x="5584" y="1938" width="232" height="308" fill="#ff3366"/>
  <rect data-id="protected-0041" x="5834" y="1928" width="292" height="368" fill="#ff3366"/>
  <rect data-id="protected-0042" x="5634" y="1748" width="252" height="328" fill="#ff3366"/>
  <rect data-id="protected-0043" x="5674" y="1578" width="452" height="348" fill="#ff3366"/>
  <rect data-id="protected-0044" x="992" y="396" width="416" height="432" fill="#ff3366"/>
  <rect data-id="protected-0045" x="1482" y="5055" width="268" height="274" fill="#ff3366"/>
  <rect data-id="protected-0046" x="3244" y="2788" width="512" height="368" fill="#ff3366"/>
  <rect data-id="protected-0047" x="3424" y="3893" width="152" height="198" fill="#ff3366"/>
  <rect data-id="protected-0048" x="3404" y="5528" width="392" height="368" fill="#ff3366"/>
  <rect data-id="protected-0049" x="1446" y="4677" width="340" height="326" fill="#ff3366"/>
  <rect data-id="protected-0050" x="490" y="5397" width="268" height="294" fill="#ff3366"/>
  <rect data-id="protected-0051" x="357" y="4986" width="278" height="284" fill="#ff3366"/>
  <rect data-id="protected-0052" x="1285" y="5353" width="278" height="382" fill="#ff3366"/>
  <rect data-id="protected-0053" x="2774" y="288" width="452" height="368" fill="#ff3366"/>
  <rect data-id="protected-0054" x="1017" y="5056" width="174" height="208" fill="#ff3366"/>
  <rect data-id="protected-0055" x="399" y="4585" width="258" height="254" fill="#ff3366"/>
  <rect data-id="protected-0056" x="983" y="4557" width="370" height="310" fill="#ff3366"/>
  <rect data-id="protected-0057" x="708" y="4521" width="216" height="382" fill="#ff3366"/>
  <rect data-id="protected-0058" x="5816" y="1656" width="288" height="272" fill="#ff3366"/>
  <rect data-id="protected-0059" x="1004" y="438" width="392" height="348" fill="#ff3366"/>
  <rect data-id="protected-0060" x="4720" y="6004" width="80" height="96" fill="#ff3366"/>
  <rect data-id="protected-0061" x="5400" y="5874" width="80" height="96" fill="#ff3366"/>
  <rect data-id="protected-0062" x="3960" y="4244" width="80" height="96" fill="#ff3366"/>
  <rect data-id="protected-0063" x="1880" y="2244" width="80" height="96" fill="#ff3366"/>
  <rect data-id="protected-0064" x="840" y="2444" width="80" height="96" fill="#ff3366"/>
  <rect data-id="protected-0065" x="3220" y="664" width="80" height="96" fill="#ff3366"/>
  <rect data-id="protected-0066" x="2580" y="1504" width="80" height="96" fill="#ff3366"/>
  <rect data-id="protected-0067" x="744" y="4984" width="80" height="96" fill="#ff3366"/>
  <rect data-id="protected-0068" x="1544" y="5720" width="80" height="96" fill="#ff3366"/>
  <rect data-id="protected-0069" x="4660" y="3594" width="80" height="96" fill="#ff3366"/>
  <rect data-id="protected-0070" x="1552" y="4960" width="128" height="144" fill="#ff3366"/>
  <rect data-id="protected-0071" x="560" y="5632" width="128" height="144" fill="#ff3366"/>
  <rect data-id="protected-0072" x="432" y="5216" width="128" height="144" fill="#ff3366"/>
  <rect data-id="protected-0073" x="1360" y="5664" width="128" height="144" fill="#ff3366"/>
  <rect data-id="protected-0074" x="464" y="4768" width="128" height="144" fill="#ff3366"/>
  <rect data-id="protected-0075" x="1104" y="4800" width="128" height="144" fill="#ff3366"/>
  <rect data-id="protected-0076" x="752" y="4832" width="128" height="144" fill="#ff3366"/>
  <rect data-id="protected-0077" x="5896" y="1788" width="128" height="144" fill="#ff3366"/>
</svg>
